<mxfile host="app.diagrams.net" modified="2022-04-14T15:52:22.506Z" agent="5.0 (X11; Linux x86_64) AppleWebKit/537.36 (KHTML, like Gecko) Chrome/100.0.4896.75 Safari/537.36" etag="W55HePoB4GIkPYCQJuU9" version="16.5.3" type="github">
  <diagram id="2BQLtbv6SEMUXLeeJZPY" name="Page-1">
    <mxGraphModel dx="3270" dy="3800" grid="1" gridSize="10" guides="1" tooltips="1" connect="1" arrows="1" fold="1" page="1" pageScale="1" pageWidth="850" pageHeight="1100" math="0" shadow="0">
      <root>
        <mxCell id="0" />
        <mxCell id="1" parent="0" />
        <mxCell id="FcNpB4x53TWQPVrVAqMB-3" value="" style="shape=image;verticalLabelPosition=bottom;labelBackgroundColor=default;verticalAlign=top;aspect=fixed;imageAspect=0;image=data:image/jpeg,/9j/4AAQSkZJRgABAQAAAQABAAD/4gIoSUNDX1BST0ZJTEUAAQEAAAIYAAAAAAQwAABtbnRyUkdCIFhZWiAAAAAAAAAAAAAAAABhY3NwAAAAAAAAAAAAAAAAAAAAAAAAAAAAAAAAAAAAAQAA9tYAAQAAAADTLQAAAAAAAAAAAAAAAAAAAAAAAAAAAAAAAAAAAAAAAAAAAAAAAAAAAAAAAAAAAAAAAAAAAAlkZXNjAAAA8AAAAHRyWFlaAAABZAAAABRnWFlaAAABeAAAABRiWFlaAAABjAAAABRyVFJDAAABoAAAAChnVFJDAAABoAAAAChiVFJDAAABoAAAACh3dHB0AAAByAAAABRjcHJ0AAAB3AAAADxtbHVjAAAAAAAAAAEAAAAMZW5VUwAAAFgAAAAcAHMAUgBHAEIAAAAAAAAAAAAAAAAAAAAAAAAAAAAAAAAAAAAAAAAAAAAAAAAAAAAAAAAAAAAAAAAAAAAAAAAAAAAAAAAAAAAAAAAAAAAAAAAAAAAAAAAAAFhZWiAAAAAAAABvogAAOPUAAAOQWFlaIAAAAAAAAGKZAAC3hQAAGNpYWVogAAAAAAAAJKAAAA+EAAC2z3BhcmEAAAAAAAQAAAACZmYAAPKnAAANWQAAE9AAAApbAAAAAAAAAABYWVogAAAAAAAA9tYAAQAAAADTLW1sdWMAAAAAAAAAAQAAAAxlblVTAAAAIAAAABwARwBvAG8AZwBsAGUAIABJAG4AYwAuACAAMgAwADEANv/bAEMAAwICAwICAwMDAwQDAwQFCAUFBAQFCgcHBggMCgwMCwoLCw0OEhANDhEOCwsQFhARExQVFRUMDxcYFhQYEhQVFP/bAEMBAwQEBQQFCQUFCRQNCw0UFBQUFBQUFBQUFBQUFBQUFBQUFBQUFBQUFBQUFBQUFBQUFBQUFBQUFBQUFBQUFBQUFP/AABEIAc0CngMBIgACEQEDEQH/xAAeAAEAAgMAAwEBAAAAAAAAAAAABwgBBgkDBAUCCv/EAG0QAAAEBQEDAgwPCwgECQsFAAABAgMEBQYHEQgSITEJVxMYGSI4QVFWdZXS0xQVFhc3YXF2k5SWsbO00SMyNDVUVVhyd4GSJEJSYnSRodQlM4KDKDZGR6KywcPhJidDU2Nlc4XC4vBEZoSG8f/EABUBAQEAAAAAAAAAAAAAAAAAAAAB/8QAFhEBAQEAAAAAAAAAAAAAAAAAABEB/9oADAMBAAIRAxEAPwDqmAAAAAAAAAAAAAAAAAAAAAAAAAAAAAAAAAxvyBngZAB+DUed3zDOTwP0AkH4MlKL740/ql9oyhJpLeo1e7j/ALB+gAYMslxwMJSaeKjV7uB+gFAAAAAAAAAAAAAAAAAAAAAAAAAAAAAAAAAAAAAAAAAAAAAAAAAAAAAAAAAAAAAAAAAAAAAAAAAAAAAAAAAAAAAAAAAAAAAAAAAAAAAAAAAAAAAAAAAAAY2i7pDIAAAAAAAAAAAAAAAAAAAAAAAAAAAAAAAAAAAAAAAAAAAAAAAAAAAADGSzxAZAYyRFxGQAAAAAY2i7pDIAAAADGS7oyPwZ78/4gP2MZFWovlF7YQ82mkvYk9aTNyWxTsE+7LqdefaJ1tRpWRLSeDwZD89UYtz3r3D+SsQAtPkMirHVGLc969w/krEB1Ri3PevcP5KxAC0+QyKsdUYtz3r3D+SsQHVGLc969w/krEALT5DIqx1Ri3PevcP5KxAdUYtz3r3D+SsQAtPkMirHVGLc969w/krEDHVGbcd69w/krEALUZDIqv1Rm3HevcP5KxAz1Ri3HevcP5KxAC0+QyKr9UZtxv8A/Je4e7/9qxAyXKMW5P8A5L3D+SsQAtPkMirHVGLcH/yXuH8lYgOqMW5717h/JWIAWnyGRVjqjFue9e4fyViA6oxbnvXuH8lYgBafIZFWOqMW5717h/JWIDqjFue9e4fyViAFp8hkVY6oxbnvXuH8lYgOqMW5717h/JWIAWnyGRVjqjFue9e4fyViA6oxbnvXuH8lYgBafJd0ZFS5lylVrJNBOx0xkVdy6CZwbkTFUy822gjUSSyozwWVGRb+6LVy6NbmUvhYtkzNmIaS6g1Fg9lREZbvcMB7IAAAAAADBmRcTHjiIpmEaU6+6hltPFbiiSRfvMQVc/W9Zq1MWqAmlYQkxnJOk0mUScyi4pSzPBESE9sz7oCecl3RkahQ1elVkgamcwgFU6b/AF7cHMHkE+TZ/em4nPWGZcUnvLgNiKcy/H4dDfCp+0B7oD0/TmX/AJdDfDJ+0PTmX/l0N8Mn7QHuDGR6npzL/wAuhvhk/aNdrat1UzIn5jLIBNROsHtuQUJFIS8aCLJm2R52lEX83cZgNuGp3ZqSLo211YT+AJBx0qk8ZHMdETtJJxpla05I+JZSQim2+uuzNy5h6WQtWsSSdJdNhUonqfQcUThHhSdhR8SPJDe7+RTEbp/uS5DvNvtnTMyMlNqJRH/JXO2QCt1qZtq0urbinKwg6zoKDhZ1BojUMOyVw1Nkr+aZkveY231Javy/5fW9P2/SN3yxIejTsV7X+A2PmE0AKqepLV/3+298Ru+WHqS1f9/tvfEbvli1WS7oZIBVX1Jav+/23viN3yw9SWr/AL/be+I3fLFqsljiGQFVfUlq/wC/23viN3yw9SWr/v8Abe+I3fLFqtoiLOSwG0RdsgFVfUlq/wC/23viN3yw9SWr/v8Abe+I3fLFqwAVU9SWr/v9t74jd8sPUlq/7/be+I3fLFqwAVU9SWr/AL/be+I3fLD1Jav+/wBt74jd8sWqyGQFVfUlq/7/AG3viN3yw9SWr/v9t74jd8sWoN5slkg3Eks+Cclkx+wFVPUlq/7/AG3viN3yxrx3H1CWpvdaynLg1BSc9klYTF+CNEmlq2HW+htEsz2lKMt+RcwVY1Wdknpf98Mf9WSAtMRYIi7gyAAAAAAAAAAAAAAAAAAAAAAA8ESaksPKTuUSTMj9vHcHnHhi/wAFf/UV8wCiNiInVBqDoZysZbe2TyCBfmEXDMwD1Kwz62kNOqQRbREWeHbPIkX1mdWH6Q8h/dR0N9g9zk3+xlg/DMy+srFowFTV2X1XOFsnqIkhYUSslR8OXDeRbiLJZLeXc7vb/frM6r/0h5F++job7Ba8BNyiityplqTsJPbcTCo7ySmqZNPavlkiipdDUzDwy1NPvEleHNk8dbkt2D38dwvSRYIiFWte34usn+02Q/Ti0woAAAAwrtDIwrtAKs8n2ZqtxXRHvIq3nPHt/wApULSkk8EKt8nx7HFd+/ac/WVC0wD84DA/QAPzgMD9AA/OAwP0AD84Hx6mrGR0ZCNxU+m0HKIZxfQ0OxjyW0qV3CM8ZP2h9oc9OWbQldjKSSosEqdkRn3S2N/zgLvSO7FF1LFlCyqqpRMInGSah4xtSj/cRjasljOSx3Ry3g+SbpWrLHyaraQqWayWrn5WzMofoqyUyb/QyXg8dcnfnBlw7o1OgtXtxqp0EXXpyZzONVXFHrbl7k0N1XosoFatlRrcIzVtoNK07e88YyfbAdNJpqEtpJZ2cnjq7kELM0q2DhXY9sl57mMjdHpzAwsrXMnYxhEuQ2bqotTpdDJGMmra4Y9scnNJGh+wWorT6zGvVGtdwXmnCiFImJtuwcRk9lKmTVg08OJZMu3vyLD0JYSvtN+iW6FGVpUcPUcEzAxT0rWztn6EaUgiNotozPZ2i2yLtGo+0Atam/VuVqSkq4kRmrgXo9v7RuUBNIKawaIuDi2IqGcTtJeZcJSDLu5L3Rx20F8n5QOqKzMZU1RR81gpk3MHIUlwbpEkkklJl1pkZHvUJD5OeZzyxOsC4tim56/O6ShUvuM9EVlDbrZpNKkpLclRk5hWzxNPAB1QwGBkiwREW4iGQH5wGB+gAfnAYH6AB+cBgfoAFbuUS3aNbknvLEPC8O1/LGBPFF7qOkXa/kDHb/8AZpEEcor2GVy/7NC/XGBO9Gf8T5F/YGPo0gPsgAAAwe/PcGQAVR1S6EU6kFRcUi5tXyB51JkmVlHqelefbhz/AOwyHPKv+SXvBbmaNRkpNmsZOy4k3HpG70CNJOd6kNLM8qIuGDMduxg+ADlXQ/JQwleyBmaQd1all6z61+XTKCNmKhXC++bcQZ5Sou4NiPkaFZ9l+c/A/wDiOl+xgz3cd+7u8B+wHM3qNCud+c/A/wDiHUaFc785+B/8R0zABzM6jQrnfnPwP/iPh1nyTkJQ8jemkdduookm9zMLAwinoiIXjrW20ErJqP2i3DqePGpOT4byPP8A+ZAcQqG5KG8NzJy5GRrRUfInnjJuJqJwlx2wXA1soPiZe2LjU/oB6XSwtexLt06wnK2aZmRqlLUcqHlSj9Cub/Q5Zz+8xfouBCPtQ3sCXK97My+qugNZ0annSxbA934jY4e4JoEL6NOxXtf4DY+YTQAiDVzVc3obTZcGfSGNcl03gZYp2GimsbTa9pJZLPtGY5s2Ea1haiqIYqambtvphHlrR0OIeQSy2TIs/e/1h0R1yH/wSboeCF/9ZI5haOnNWsNayHcs3ES4qZU66SUPMQrjhKyW1norajIs44GAvPprkl+LJeqWd30rVme00ywl9cS64lZQLaCUa15JO4sce5gWRo29VD3CoeLrCnanl81pmDS4qJmbLv3Jkmy2nDWeOt2SLJiF9Jcdf6aSudS2/sDBRqolwkQ7jMOylHQDQonErS2kiPJmgsGR8THNnUXLai0uXcuDYGjp/DQ1FXBiIJw0OOZOBbdeIybUr+bgtolYxlB4AdDdRPKC25oixE8qqhqwlE+qFaTYkzCDNZPRG2hKjJJlvJBL2j9wSPpK1GSnUVaCWTpubwEbUMLCtFPGIU9lMJEKSZmlSf5vA93tCnmtrTLSVmOT4gYWGlcM7OZI/BGzMlILopKceQTpkr+uRnk+3uH7nsklVjOSvmlU0dL0SSf1HJ4GDmEXB5bW+T77bLijwf3xoWsiPumAt/D63LHRlZt0qzceSuTlx70Olsny2Dd2tnoe397tbW7GeI3qv71UPaqNksJVdSwMjiJy70CXtxa9n0Q4ZkWynBbzyZf3jiTL6ht7NdJJ0exZeeRddvtJiYer2YfaInScSo1EvZ2jbMsp2TMywe7B4EjasqjqGu9MOmh2duxcLUyHVQDkTFEZP7aTJCXFZ353F/cA6pS/VJayay2rZjCVpLXpdSjhNTeLbcy1DGZ43qxvLO7Jbh8ipdaNlqRlckmMzuBKGIWct9GgVE9tG63nG3jiSfbMV1vJpgofT5oVuY5ScvcgouZyJC451b6nOiqIkmRntdvfxFebK6SqJrnk66zr+fQJxlWw0ojo+BmS3VGtgoVtS2m09xHWERkA6tRVwqZgKJ9V789gGaW9DFGemy30lD9BMsk5t8MGRkI6tvrFs7dmqE07S9dyuZTlwz6FCE7sqex/6vP337hzutnN6CqHkwZZLrsVbOZDI2J+9DwiJSSHIiMWhZrbYJtRHtJSatrtYxngQhW+lb0CzE2ij7ZUDOaGmMmimy9Po2H9Cqj0pWk0OZIi2lkZGZqMzPG4+IC4Gper57KuU4tdL4OcR0LL3mIbbg2olaWV5UedpBHg93dHSQuBDlzqPiVxvKaWaiHPv3YKBcWftnvMdRi4AMirGqzsk9L/AL4Y/wCrJFpxVjVZ2Sel/wB8Mf8AVkgLTgAAAAAAAAAAAAAAAAAAAAAAA8MX+Cv/AKivmHmHhi/wV/8AUV8wCsXJv9jLB+GZl9ZWLRirnJv9jLB+GZl9ZWLRgAAACrOvb8XWT/abIfpxaYVZ17fi6yf7TZD9OLSmeAGQAAAYV2hkfkz7XbAVb5Pj2OK79+05+sqFphVjk+d1uK7z37Tn6yoWnAAAAAAAAAAABz25Zv2DaP8Aanf/ANBDoSKz669KU11ZW6lMgk89hZBFS+OOM6NFQ6nUrLZxslsmRkfbAbza6ppdRemKmJ3N4tqBl8DTsO88++skISRMl2z3b93945w8nnV9ESuOvrcG4kVAS231SxaoBSZsWGIhS3HHugmk9xmaXOGO1x3DdS5K28s/l8HIasvpMJtSbOyk5UUZFONJQXBKG3HFITguHW4FtGdCdvE6bYqzq4Z5MpfSTno9sy9EIiiyaYgjMjI1kpRnwxvMsEWAFZ685Ju31ZSRquLOVrHU8iKhymMtLovR4U0mnbQbbm5xOSMt5qPA1nSpfmtLg6VL9UDW80cnsbSEvfah5pEOdGWpsyWlTRucXCSaDMlHvwoi+9IiL6MJybuoijZU9SFK33i4Oi1GpKIZqIiGSQ2o96dhKywW/riSZEfcFhbH6C4Ky2n2sKGgJxtz6poRxmLm7rZqIlqLGdkjLKSwWCz2j7oCgWi2zmpCvbTRcXaivjpqmlRrjD0Il8kKJzBbSuGd5GXbF69DeheN05Tac1bVs5Ooazm57T8We0rZyZqM9pRmZqM1Hk8nn9w33Q3pknOlS18fSU3m0JOXXY5cWiKhGjQjCiIsbJ787iFkQGCLBERcBkAAAAAAAAAAAAVv5RXsMrl/2aF+uMCd6M/4nyL+wMfRpEEcor2GVy/7NC/XGBO9Gf8AE+Rf2Bj6NID7IAAAMZGR68bFsy+FdiYl1DEO0k1uOuHhKUlxMwHnDaLGclgVdupykViLUuLh4irUz+PRtEqEkLfopSFl/NUZYSW/2xXOXcrtAXArFEsgoWX28plvKomdzzbjolaSPgy02aEpWZdtRrIu2QDpeAqdC8pxp8YhmmnK4ciFoQSVOrhDJSzIt6jJJERGfHcRF7Q8vVPdPPfmfxVYC1gCqfVPdPPfmr4qsOqe6ee/NXxVYC1gwaiLtkKqdU9089+aviqxGV5+U7omVSo5xbStJXN4+HIjdp6eQTiW4pGd/QXkKSaHP1jUn2i4gL8ZEfahvYEuUXb9TMy+quin9p+WNtdVpMw9YyeZUZGqNKeiJ/lcOZnxM1ESTSXukYsVWt6qHvJp0udG0XVEuqRhumZj0Q4F4lm3/JXPvi7QD6GjTdpXtf4DY+YTQIX0adiva/wGx8wmgBDmr6mZvWWmi4ckkMvfm03jZYtqFgoZG046vaTuSXbPiOaOnS6OqrS9RqaVkNiXZjDMrcPos1lsUp0jUojMsodSXa7g7Ij8mRgKKWS1jagZ+qqXbh2ReljMBKVxUrh5VARDb0bFkpKUs/dXFFg8nnBZIiz2hANB6EKy1IWzu7XlyJfGS+6U9ccipSzHN9DeZdbPbQ1s9pLmySPaLA607PD2gSWz2gHNieSC72ofk7akt/UlITeBuXTa4VCIWYMG25NWWXkL228mRKVsIUR44mRF/OH2LDUpWWpXRLVdkaxouMoiZyyWswkrjY5tTaI11tXRG1qSZFs7LjbZGRdozwOh3E93Av3AksZ3EQDk5bW7Wp2ylpIazEptFEsVbLogoaAqeJhSeYZY2+JkojQosZIlcMHwyN6142fulcChbFPKp6Kqefy2KQ5PIyUwey2heSPbNKS6wj3n+8dKNlJqzgs8NxDJlnOf7u0Ar9q4pGc1vo7rCRSGVxE2nMVJSbh4GGbNbrisJylKeJn7QhrT7bSq5ZyatW0ZF09HQ1VPU/NoVqTvNmT63lsOEhBIMuKjMiLumLz43lx3dsYSnBdz3SAcWpppMunOtDNLQ8JSM09UdM1NFRcZT7zJpiFMLLBOJbP77B9ztZwPs6iaVv5qooanKu9bB2Qy+kDZYZp6EZWcXFKMiNcTjcrZznCS4Ee/I7GY7W8EoJJYIsZ9rADlvUtL3Cunq9sjcp63c9ksmYgINqPceY224J1BGS0LWZbsGOpRbiH5IjIiwWPcH6AZFWNVnZKaX/fDH/Vki04qvqsVjUlpg4ERVBMDz/8AxkgLT5DJY4iu929fFkbMOxENOqyh42Zw6tlyWylPomIQfcMk7i/eYqrN+WKltU1YxJKUkkHTMrU4fRakqhSnkttdtSYZo0mau4Rr490twDplkZFRpTymFg5fL2GIy4DsxiW0YdinIE0KcV2z2UkRFnuEWB7vVPdPRcayPP8AZlALWAKp9U9089+aviqw6p7p5781fFVgLWAKp9U9089+aviqw6p7p5781fFVgLWAKp9U9089+aviqw6p7p5781fFVgLWAKp9U9089+aviqw6p7p5781fFVgLWDAqp1T3Tz35q+KrGqXF5Su00ZTz7lF3Eg4KfMkbkOxNZat6DiT/APVukk0qIj7qVFg9+DAXXHhiz/kj5/1FfMOcVsOWdo2ZRBQNf0rFyF1Bmlcxk7noqHWZHjKUHhZF2+J7hca2WqO1t8odbFGVlLpxGrZNaoFDuzENlj+cgyyQCOeTf7GWD8MzL6ysWjFXeTg7GWEzu/01MvrKxaIAAAAVZ17fi6yf7TZD9ONe1kweqx+vZUqxU0agacKCP0UhbUIsze2v/btLPh3BsOvb8XWT/abIfpxaYBy49LOUcLhP4XH9mlvmA9LeUd74IX4tLfMDqOADlx6W8o73wQvxaW+YApdyjX86fwplvzmFlvD4AdRxhXaAU+5L8pwmwM7KolE5UBVRM/TFZEkiVEdHPoh4SRJLrtrgRF3NwuEKs8n17HNd+/ac/WVC0wAAAAxks4zvGR43DJKVKPOCzwFEJ5ywFrpFPZlKnKbqF56BiHIZxTbSTSakKNJmXtZIBfLJd0Z4it+mzXla/U7N3pHTsZFS+o221PelUzbJpxxBcTbMtysdvG8hY/IDIDGSA1EksmZEWM7wGQGMgaiIjMzLBcfaAZAYIyMzweccQyRgMgMbRZ4kG0R9sgGQGMl3RkAAYMyLO8twZLugMgMEZH2xkAAAAVv5RXsMrl/2aF+uMCd6M/4nyL+wMfRpEEcor2GVy/7NC/XGBO9Gf8T5F/YGPo0gPsgAAA9aOl8PM4Z2Gi2G4qGdSaXGXkEtCi7hpPcf9w9kAFdLo8n7Yi7XRXZpQEvlccvOIyR7UAtKj/nbLRpQo/bWkxWlHI/UxRtZMTeVRDNc06WSiKcqhbrLjhGfFuJhltGlRFw2iNPdIx0hABVWF5MfTc5Dtrftkhp5SSNbfp1Hq2VY3lno+/B9seTqYmmnm1b8cTDz4tMACrPUxNNPNq344mHnw6mJpp5tW/HEw8+LTAAqz1MTTTzat+OJh58RpeTktrc1DANyW3VEyelHIje/UkwmMfFuQxZ4NQ/RyJSz/pLM0l/RMXxABRa03JCWZoZbEVU6prXMcnClIjok2IYlFxwhrZMyz2lGYnu5Vp6Ltfp5uPD0lScnpxpNMTJJpl0E2ypf8lc++UlOVH7ZmZibhHuob2BLle9mZfVXQGs6NOxXtf2/9BscfcE0CF9GnYr2v8BsfMJoAAAAAAAB4Yl9qFYcfeWltppJrWtZ4JKSLJmfuEPjUxW8hraFeiaenEFOYdhfQ3XIJ4nUtq7h7Jnv9oepdJJetrV2SyRymLyXHP3FQ5x8lZU/qJ093tn5q2USlMRMOOEp6Ew4sz3n/VIB0DtPfiib3JnDlGzpucIlMV6DizbIyJDmM438eBjNR39txSE5TKZzW0jl0yMyL0K9GISvJ8N2d37xymtndmZ6duTmqWqpG+uAqetqhdlUJHJLC2knlS1pPiSuhkvZPtKwfdEr6c+SmpO4lpoKpbhzWbO1LO2fRbjrD+DYUsskZZ3KPJ7zVnPaxkB07l8xhZrBNRUHEsxcM6klIeYWS0KI+2RluMeyOW+hmpaq0s6vai031BOH5vTcUbzkr9EHkm1pR0RtxBGfWEtsjygt2d46jlwL/tAZAAAAAAAVU1XIJ3UfpjQ4W0hVQx5GgyySv5MntbyMhasVY1Wdknpf98Mf9WSA3G6GiGyN3kOHUFu5SmKXlRxssbOBf2v6RrZNJrPt9dtCqtQ8jhSUoqeEnNJTg5nL2XNt6nqpJbkO+nP+rS6wppxBY4HnOe32h0gABUyU8mbp2jJXDuzC1Lcvi1Iy5DInse6lpXbIlE8W17uC9wh73UxdNB/82jfjeYefFpQAVa6mJpo5tG/G8w8+HUxNNHNo343mHnxaUAFWupiaaObRvxvMPPh1MTTRzaN+N5h58WlABVrqYmmjm0b8bzDz4dTE00c2jfjeYefFpQAVa6mJpo5tG/G8w8+HUxNNHNo343mHnxaUAFWupiaaObRvxvMPPjU7kcmXZtMhXD0RayUqnMTlpMZNp1MegQhH/wCkU2l8jdx2kkpO/t43C6IAOedrORotrT7qI2uZ9M6siyXtrg4Q/QcGftYI1OY/3gt/QGnS2dn5fij6GkkieabNKYpiESuJxjtvLI3D/eoxJo8MX+Cv/qK+YBWLk3+xlg+1/pmZcf7SsWjFXOTf7GWD8MzL6ysWjAAAAFWde34usn+02Q/Ti0wqzr2/F1k/2myH6cWmAAAAAYV2hkYV2gFWuT49jiu/ftOfrKhaYVZ5Pj2OK79+05+sqFpgAAAB4on/AFDn6pjkLyeUbbyEvfeNFfuSNuFXGvGwmdE3gz6OvJpNRfMOvMQZdBcLO/ZP5hxS0c6TKN1T3ouvA1auNaRLpg85Dqgnehnk315zu3gNtq+Loma8p7QsRZZuCOBhoiGXMnJISfQy1pI+jGnHW/e4JXdVntjc7jandQ061c3OtBb6oCecefOGlSYlhkkS1lJJU4tKuhmZng8Eatr9wuTp60MWw02zB2Z0xLHXZsstk4+McN1zHtGf3vuJx+8VMsK2lzlZ7oZSRmno5pz2vuacgNu1OaqbuWAtnau18BEw8Re2pIVtuOmrjTbpt4V0InEpMjQpTikq3mW4i4Ge8aFU169SuhusKHnFz6wh7hUNUj/QIqGVDtoWwvBGokGlJKQpJK2iPelW/rTHtcpm27b/AFfWOuVM21t0tDNswr0Vs5SlbUS444R/7DiT/cPzyr12qYulI7X0bRs2g6jnEbMTjCZlzhPKQ0pKCbPrc42snu9oBvGq/VTcitNQ9PWPslOWZDFRMIxGTKd+h23nCS62TqUkSyUWyTS21biyZrPfuH2tNN3L8WovfObWXrJ6rJI3BqjICrmoRKW07DZObJuISRKSZGZddlRKI+JCvUpbRp05TanJlWcSiXyeaSWBahZhEda0ovQLMPk1HuIicaWWfcFw5lrXpW5F8p/ZGmpS/P4g5Y+hdRQD6HIVDhsGZoIiIzMyNWzkjxkjAVfpi+2ofWdU9eVNbm4cut9SlPPuNymVrZaUUVsJNSSWtaTVtLTsGZqynKjwREQn/TfrhmlxNJFYV3UcA1EVpRKH4aZw7KSQiJdQkjQ5sluSStotok4LKVYwQoJox0+WvryAr+WXQrGYUXUVNRbnRIdiOKGJTSE7LmEn98pKkLLHcMhdnSRAWCtXYG5daUhNp3P7fGTiZ4maQijcUSUkSjQgt6iMlcc7sH3AEJ2mrPVpqAtzFXZo27stiZiiIdNqiWISHz1i97RINON5FkiPeZbzUZ7xNOq/WNc+0+mW38wKVtUXceqYv0BHPvtpdalim8dEcSlRGRmolIMiVkiLPHGRWO4Ol60cLbGZ3ssPeWKpNphtyKZlMZGdCiG1JVg2EGkydSfaLaNW7iZ8RM0LfG3V79FVt4HU0/G+i6hi4iDl9QQ7CicJ1lewmJNxO5OEqSSjURpVg1GR8QH3aCPVpaqraPnqq0g72UTOFoOaQsI00RwiF7OFpWlOU7jMy2TwZJMjTkx59VuqG6laamYCwdlpo1Tcawyh2cTk4dDzqTWkl7BEolbKUoU2fW4UZr4lwFZ7jW7mOge4NCTu0V5F1LLZ1MUNHIURKXDW0aiz0VtB9CWlRKxnZIyPeQkpmoYWzPKyx1SVkopPJ6tl6HYKMizJLZE7DtILKuBfdGVoz2t3dAb3aLUZejThqqktl74T6GrCV1HDodls6Q0htbBqNZIVtJIspNTakKSraMutMjIh8fU1qmvjSmtKa2wt5OExDcylbcPK5W/DskzDRCyyb23sbRGSUqxkz3mQ1vVbVUsv1yi9qpRRkaxOvSJhlMbGQaicabc6K4s0mZdwtgu5lftj71WNpc5YaU7aSVsy5lRErG4ybMgF49MUnuJIbRSmX3Rj0zasYc3CiY5JkroxGozSeSIi4GRcCEsluLugRYIZAAAAFb+UV7DK5f8AZoX64wJ3oz/ifIv7Ax9GkQRyip/8DK5f9mhfrjAnejN9HyL+wMfRpAfZAAABjiMjxuKJBGozwREZmZ9oiAfvIZFWr3co/ZqyEVEy2OmsXO50wpbapfK4VSjStJmRpWpWCTvLGd4pvW3LOTyopxDwFLUxB0dJnV7MRNo9BzKKaRne422Rto2scCUSiL2wHW3OBkc86Y5Xaz1PyWGg4x2sJ5GoT92mEXAsJW8s/wCcaUGlKS7WySS/fxH1erJWU/NlS/vhEeUAvuAoR1ZKyn5sqX4ojyg6slZT82VL8UR5QC+4xki7YoT1ZKyn5sqX4ojyhrdfcrZa6pZC+zT0wq2l50gjXDR7MtYfRt43IcacM0qSeN+4jLG5RZAdGsiPtQ3sCXK97Uy+qujm5bHlp5pL4r0JXtFQk4h0q2EzORuKhnFIz9+ppw1lky37JKLHAWZjtfFoNQNlLhyynJ1FQk4epqZEiXzKEW04o/QrmcGWSP3ckAmTRp2K9r/AbHzCaBC+jU/+Cva/JYP0jY3dzcJoAAAAAAABq10D/wDNpVx9r0ojN/8AuVDj/pkq06L5PzUlGko0m+puXYI8GZxKyYx/c4OyNWSRVSUxOJSh0mFx8G9CE8pG0TZuINO1jJZxnhkc54nkzLhUzpvrC28oqmVTWIns5h5iqIUytlJtNHtbGDWe/aIjARHqWthGSvkt7QxcPCqIpdNGY+YKIjwjozLjZGf+0pBZHTbTFXUpuLYKip7K323oR6WNbRIMj6Gsk4UlWOBkZHkh7DFlpHP7FsW2qSWIjZI/K0QEXCnuLGzxSfaUlREZGW8jIj4ihsdyV116EjJhK7aXtmcmo+NcUs4Do77CkJ7i0tuElZ4/nERH7oD48BOmbxcsA5N6eUmLl0hMoaJimD2kEpiHNlRkZZIyNwyLI6rlvIhV/RtogkelOVRMQUWc6qeNSRRUycTg1Y/mp7ieG4WgLgQDIAAAAAACrGqzsk9L/vhj/qyRacVY1V79Sel/3wx/1ZIC04AAAAAAAAAAAAAAAAAAAAAAAPDF/gr/AOor5h5h4Yv8Ff8A1FfMArFyb/YywfhmZfWVi0Yq5yb/AGMsH4ZmX1lYtGAAAAKs69vxdZP9psh+nFphVnXt+LrJ/tNkP04tMAAAAA/KjIfofgy37vmAU10NXPpGk6IruCnVTSqVxnq1m6ugRUUltZEcQrB7Kjzg+6LJevtbvv3kPx9v7RrM20h2YnkyiZjMLZ05Gx8S6bz0Q9AIUtxZnk1KPtmZmZmPVLRZYlJEXrUUtu/93I+wBuHr7W779pD8fb+0PX2t337SH4+39o1DpLbE81NLeLUfYHSW2J5qaW8Wo+wBtbt8rdOJUk61kWD3H/pBvgfHgoRNaOjNPFjKrn1QUbUMolcfPVGuPI510ZDijUajMiWs9neZ7k4Ibd0ltieamlvFqPsDpLbE81NLeLUfYA24r6W7xj1byH4+35QiaR0np6pu88zunK6gk8HWMz2ijItM620PZLB5bUs0pzjtEQ2vpLbE81NLeLUfYHSW2J5qaW8Wo+wB4rpzix16aRiqarOd0zPZREb1Mvx6EqSouC0LSolIV7ZHkQ1abTLpUszVKKhkM2k7k0ZPLLsfOExBtdzZ2lGRYPtpwZ9szE1dJbYnmppbxaj7A6S2xPNTS3i1H2ANWvvSmnXUfKYWArqb09MlQhmcLGMzNLMRD57SXEKI9nt4MzLI+XYO2unDTecSujZ7IoaKex0SLiJoh14+5lRq4b/8RvvSW2J5qaW8XN/YIEiKFsBD6x2LMlaqkVocpv0yN05e3tNxJOKPofDeZtGgyIB9a8umvSjfCsHqon8fJGZ5EqI4qIl859DlEmRcXEJWSTVu++IiM878iXKDmVj7b0OmkZHPaZh5ATamThFRrSkLQZbyURnvznefb7Y9npLbE81FLeLkfYHSW2J5qaW8Wo+wBXOZaJtHEfUaps3GSiFQtzohwLM+UUPnOTwg3NxZ/m8O1gTTVlO6dK3tezb+dx9LRtKskk2oQo5ts2lJLBLQpBkaVEWCyW/BDY+ktsTzU0t4tR9gdJbYnmppbxaj7AEEW00oaTbV1TD1BKZrKHphDr22lR05KIJsy7hLWZEft4z7Yk2+1I6ddRslhJdXM2p6ZegvwWLbmiWoljP81LiVZ2faM8DauktsTzU0t4tR9gdJbYnmppbxaj7AEcWHtHpr06RT8ZR88kcPMHi2Fxr80Q66ZdzaNWce197uLdkfcmVJ6eZleqGuuuoZO1XEO2TRTBqddapBFgiNs17Hb/o5G19JbYnmppbxaj7A6S2xPNTS3i1H2ANv9fa3fftIfj7f2h6+1u+/aQ/H2/tGodJbYnmppbxaj7A6S2xPNTS3i1H2ANv9fa3fftIfj7f2h6+1u+/aQ/H2/tGodJbYnmppbxaj7A6S2xPNTS3i1H2AIr1+Xfomf6Q7iQEtqyTx0c9DwxNw8PGoUtZlFsmeCI8ngiM93cFpaN3UfIs8fQDH0aRFzejGxrLhLbtVS6VkZGRplyCPdvLfj2iEzQ0O3CQ7TDKCbaaSSEISWCSkiwREA8gAAAPyfc3l7g/QANNr6z1EXTglwlXUnKKiZUnYI5hBodWgv6izLaR/smRirNYclLaOJqCHn9GJi6PmsK4TrUOokzKAWrtk6xFE5tJPhskosdrAuwACFaY0r24akcO3UNsaDiZshOy+/L6eh2mXT/pJSojNOe4Zn7pj7HStWd5rKO8Rw3kCUgARb0rVneayjvEcN5AdK1Z3mso7xHDeQJSABFvStWd5rKO8Rw3kDWLgaTaHmlPvQVIW/oKRzR7KfTSOpqHiSh0nuM0NESSUvHA1Hgu4rgJ5ABS62vJQ2To6O9M6igo2uJqtzoyzmTpMQyFmeT2GIcm0knPBJkZEW7Am26NuqXt7p4uRCUtTcrkDHqZmJG1K4RDG1iFcLeaSIzP2z3mJkHrRsGzHwr0NFMNxMM8k23WXUEpC0GRkZGkyMjIyzuAU+0r6v7LUhpzt5J5vcmRS+aQUnYZiIV980raWRb0qTjcZCVunjsJzq098ZP7BvnrF23Pjb6lc+BYbyA9Yu23N9SviWG8gBofTx2E51ad+Mn9gdPHYTnVp34yf2DfPWLttzfUr4lhvID1i7bc31K+JYbyAGh9PHYTnVp34yf2B08dhOdWnfjJ/YN89Yu23N9SviWG8gPWLttzfUr4lhvIAaH08dhOdWnfjJ/YHTx2E51ad+Mn9g3z1i7bc31K+JYbyA9Yu23N9SviWG8gBofTx2E51ad+Mn9gdPHYTnVp34yf2DfPWLttzfUr4lhvID1i7bc31K+JYbyAGh9PHYTnVp34yf2B08dhOdWnfjJ/YN89Yu23N9SviWG8gPWLttzfUr4lhvIAaH08dhOdWnfjJ/YHTx2E51ad+Mn9g3z1i7bc31K+JYbyA9Yu23N9SviWG8gBofTx2E51ad+Mn9gdPHYTnVp34yf2DfPWLttzfUr4lhvID1i7bc31K+JYbyAGh9PHYTnVp34yf2CDrvX4t9ebU1pxh6Iq2W1M/L57GOxTcA4alMoVDpJKlHjcRnuFrfWLttzfUr4lhvIHtSi0tD09MWo+VUXT8tj2TM24qDlTDTiD7pKSgjL9wDbS4EMjBcCGQAAAAAAAAAAAAAAAAAAAAAeGL/BX/ANRXzDzDwxf4K/8AqK+YBWLk3+xlg/DMy+srFoxVzk3+xlg/DMy+srFowABjIGeAFWte34usn+02Q/Ti0wqzr2/F1k/2myH6cWmAAAAAAAAAAAAAAAAAAAAAAAAHgiIhEIw686ey22k1qVjgRZ+wcCp7qaiOqCxN2icN+DZqXZbJLmEuQTZkwgvcNtCT90x3NuwTSreVAh+a+kjDkKplyYEnJsIV1qlEXuHj2hykqazFEQHKbSS3DEohV0OiWQcCUDuU2pn0Ag9sz7pme2as5M94DsJCRbMZCsxDDqXmHUE4hxJ5JSTLJGXtYHmGl2mgYWWW3kMugJoc4gZdD+gYWPXvU8yyZttrUf8AOPYSnKv53HtjdAAAAAAAAAAAAAAAAAAAAAAAAAAYLgMgAAAAAAAAAAAAAAAxkj7YAMgAAAAAAAAAAAAAAAAAAAAAAAAAAADGS7oDIAAAAAAAAAAAAAAAAAAAAAAAPDF/gr/6ivmHmHhi/wAFf/UV8wCsXJv9jLB+GZl9ZWLRZFXeTf7GWD8MzL6ysWWmyYhcsjEwePRamVkztHgiXsns59rOAEf01qKoCr7qzu3kmqBiYVRJoZUVHQ7J5QylKkpURr4bRGpOSLhkQdOOVLsHIq8dpd6ezB1xqJ9CuTRmD2oFCs4M+ibRHskfE8GQ58WgvfRVg7SX1TN234a9cwfi5VCm80roym31Ghw9s+BJI1KP2yI8dsbNb+09u7Z8nXVdXXGlcGmp6r2kyN+KZzFLe4spaVjaJRYUtW8i2eOQF79cM1g51TliphARLcXBRFyZA8y+0raQtBvZJRH3BbAcypM3MmtGGlFua9E9EIuBIUobeySib9EHsEeeGCxuHTUAAAABgZHpzSZMSaXRcfFr6HCwzS33V4zsoSWVH/cRgPbyMirzPKRWMiWycYn0xeaPg41K31pPfjcZJwe8u0P31R2yH56mvieI8kBZ4BWHqjtkPz1NfE8R5IdUdsh+epr4niPJAWeAVh6o7ZD89TXxPEeSHVHbIfnqa+J4jyQFngFYeqO2Q/PU18TxHkh1R2yH56mvieI8kBZ4BWHqjtkPz1NfE8R5IdUdsh+epr4niPJAWLqOTMVFIpjKopCVw8ZDuMOJWWU4Uk0nn+//AAH89k1ldwIbVf6iG5tMHapgJkVKw0d/+pOFaV0FvruP+pSnB8dnA7D9UcsiZ/jqafvlER5IphMLlWajOUYh7wlHzBVLnLER63ClT5KRM0I6AktnZ4GhBKM+6YDqpR9LwlFUnJafl6NmAlUEzAsFxw22gkJ908JLePtCsPVHbIfnqa+J4jyQ6o7ZD89TXxPEeSAs8ArD1R2yH56mvieI8kOqO2Q/PU18TxHkgLPAKw9Udsh+epr4niPJDqjtkPz1NfE8R5ICzwCsPVHbIfnqa+J4jyQ6o7ZD89TXxPEeSAs8ArD1R2yH56mvieI8kOqO2Q/PU18TxHkgLPAKw9Udsh+epr4niPJDqjtkPz1NfE8R5ICzuRkVcf5SKx0Myt1yezJtpBGpTi5S+lJFu4mad3HiLKyScQtQSeCmcC50aDi2UPsuYxtIURGR/wBxgPeAAAYLgMjBDIAAAAAAAAAAAAAA067lcnbG2lT1cUH6POSy96NKFNex0XYSatnaweM47grpSmpXULWlMSyfSuwksel0yh0RMOtVTklRoWRKSZl0HduMTDq27GS53gCL+jMe7pk7Hu3fgKE+jIBE/r4ak/0f5WX/APaC8yHr36lOYCVfKgvMi0wAKs+vfqU5gJV8qC8yHr36lOYCVfKgvMi0wAKs+vfqU5gJV8qC8yHr36lOYCVfKgvMi0wAKs+vfqU5gJV8qC8yHr36lOYCVfKgvMi0wAKs+vfqU5gJV8qC8yHr36lOYCVfKgvMi0wAKs+vfqU5gJV8qC8yHr36lOYCVfKgvMi0wAKs+vfqU5gJV8qC8yHr36lOYCVfKgvMi0wAKs+vfqU5gJV8qC8yHr36lOYCVfKgvMi0wAKs+vfqU5gJV8qC8yPnM6rrrUzc239MV9aKDpmBrCaHK4eOh56UUpC9klGex0NO7Bi24qlrG9nLS/78l/QkAtZwGQAAAAAAAAAAAAAAAAAAAAAAHhi/wV/9RXzDzDwxf4K/+or5gFYuTf7GWD8MzL6ysWedVsJUrGcFnHdFYeTf7GWD8MzL6ysWfWokJUZngiLIDkRdbWrp5ry4cdOal08xkfP4aIUy7HE+hCog0K2cuIJGyrOP52e4eSIe9cXlG7KXSpmTUpUlkJrHyuVxbcdL4Ao5KCbeQlSSPoZIIlFsqUWFEaTznGSE+TXXzpKYmcW1GyptUU28tt4/SBB7SyUZKPOd+8j3ivWsbV9pquDaaOllAUs4Vdqcaclc3hZcmBOBWlxJqcN1J7R9aRp2cGR7QCw96K9lV0bB6aamkkpckMumNwZA41LXTI1Q/wB3UWwZ4LODLjgs8Re8c557VE+rDSrpdmlSQqYWdOXBkBRJE0TRuKJ89lRoIi2TUWDPd2x0XLeQDIAAANYuf7HFU+Cor6JQ2cavc72OKq8FxX0SgEQaDYGHc0iWuWuGaWs5MyZmpJGZ7sbzwJ8KWQpEX8mZP2zbT9ggvQV2IFrfAzPzCfwHqelsL+SsfBp+wPS2F/JWPg0/YPbAB6npbC/krHwafsD0thfyVj4NP2D2wAep6Wwv5Kx8Gn7A9LYX8lY+DT9g9sYyA9X0thfyVj4NP2B6Wwv5Kx8Gn7B7YxkgHq+lsL+SsfBp+wYOUwWTP0Gxtd3oSfsHuDGS7oD1fSyF7UKxj/4afsD0thfyVj4NP2D2skYyA9T0thfyVj4NP2B6Wwv5Kx8Gn7B7YwZkXE8APV9LYX8lY+DT9gelsL+SsfBp+we1kNou6QD1fS2F/JWPg0/YHpbC/krHwafsHtZDJd0B6vpbC/krHwafsD0thfyVj4NP2D2wAep6Wwv5Kx8Gn7A9LYX8lY+DT9g9sAEC62oCHa0mXVUiHZQspFEKSroZbjwW/cQkSynsPUVux/oiE3f7pI0TXB2JF1vAMR8xDe7J+w9RXgeE+iSA3UuAyMFwGQAAAAAAAAAAAAAAAAARJq27GS53gCL+jMe7pk7Hu3fgKE+jIelq27GS53gCL+jMe7pk7Hu3fgKE+jIBJwAAAAAAAMAaiIjPJYLj7QDIDBqIuJkXbDJd0BkBjaI+2QZAZAYyXdDIDIDGRkAAAABVHWN7Oel735OfQkLXCqOsb2c9L3vyc+hIBa4AGMkXbAZAYyXdGQAAAAAAAAAAAAAAABgzIuO4BkeGL/BX/wBRXzDy5LI8UUZHCvYPPWK+YBWLk3+xlg/DMy+srEoX81I0HptpyHnNczU4FuKdNmFhodHRYiJUWDMm0ZIzxks+6Iv5ODdplg8/nmZfWViqPKIyJm5+vKz9FTo1xMifhUJVC7RkRktxSllu7R9DTntgNupiotDFyqWq6s2JBCwqZMyqYzGDjWFsxRpUvZ2kN7R7ZqWpKSIj4qIQ1bnVjpKhq8hGouxr1PStx77jOohaYkk78JcWyZYIi3byNRl7Y/XKTaYKAs1XVpG6Qk5SSFqGJXATNhhxezEoS6xgzLgRltHuLieO4LE8oXYahad0JzWZS+lZbAzOSolzsLFQ0MltxpS4lllW8uOUuqIy7eQEia0DlTlI2FcknQFyt25FPrhVwx/c1IN7rTLu5IW5HNWDmMTMdF+kd6IeU66VdSBBLWeTMkxCiLf7REOlJcCAZAAABq9zvY4qrwXFfRKG0DV7nexxVXguK+iUAijQV2IFrfAzPzCfxAGgrsQLW+BmfmE/gAAAAIivjqmtzp0ipWxXU6VKnZkSlQxJZU5tEnie7gQl0cuuWBg2ZhcyzULEtJfhnnlIcbVwUk3SIyMBbqguUCsRcOcMSqW17BsTGJWSGWI5CmDcUfAiUZYz+8T7HTOElsuejouJah4Jls3XIlxwkoSgiyajVwwRdsUZ1Lcm7ampLHzuaUjTyadqyBl6o2EiIN1SUvOJb2+huIPKTSru4IyEL2vuvWt+eSyr+TtxMVNJ9TCTl7rqTNb8RAlhZIPtqNLZ7O7eZJIBamccqDp8k09OVnVr0aaV7CoyDhFLhyPODPa3ZL2yIxPMlvPRtR21dr6UTyGmdKIhlxSphDL2kkhH32S7Rl3OI5j6LKw0mVLY6Hoq4cBKZTVzxLh4t6cMbC3lqPrVsxBZMj35LenHDeRCztE6YJLpj0nXSl9MVfGVVT02l0THNKiXGnG21dC2dpCmyIsGkiyW/eWQGyo5UDT0vBerFzfjeqDWJ3tReiir308c6omoYOoIBC9hxcOrrmVH/NWk96T4/wBw5s8mVpwtLd+xc3mVdyCWzGYNTNxpL8U+bbhNkku4ot2e2PV0KQ0BbblE7i0dQEc5E0DsxEOZIdN1r7ng0J2t+0SVG4kjPucTAdUqpqeXUXTkxnk2eOHlkvZVERDuznZQW8zwKzJ5UHT0ZJ/8sHC2uH8jWJb1THnTncM//csR/wBUc8OTXsXZS5ViY6Y3El8jiJs3M3GkOTCMQy50PZSfDbI8e3jtAOjFm9Rlu7+wMTE0PU8HPPQ2OjsNq2Xmc8NpB7y93gPPeu/VGae6Zh5/W81KVy6IiUwjSiQa1LdNKlERJL2kmOY1l5HTFt+VIXJrNxRrpFpo24tqDeN1hKTaQbzaVZPaQSzTv34PJEYk3lFT6YDVhaGx0Mszg2WHI+PNrg2t8zSnax20pZI/aJz2wHQG19z6bvJREBVdKTApnI47aS0+ksHlKjSZKLiRkZCO7ha0bTWuuU3QdS1F6AqRa2UEwbCjSRu7kZVwIVm5J6p4ik13Xs1M1KRGUpO3XmG3T39CUo21ERH2stEr/b9sVP5SGm4mfazq5iIM1FGSmQQ0zaJH32W1Nl/gSs+4WQHZytq4lFvaQmdTT6NRBSaXM+iImJPelKMkX78mZf3jRrF6nbeaj0zZVBzj00KVdCKJJTRtmjb2tnBH+qYp9qtvv6veTxtxDy+J25hcB+XSRadrK1kg/ux/xtoL/a9sahyMspVIquvJLVlsrgnoaGUWe2hbyT+YB1JLgMgAAAAAg7XB2JF1vAMR8xDe7J+w9RXgeE+iSNE1wdiRdbwDEfMQ3uyfsPUV4HhPokgN1LgMjBcBkAAAAAAAAAAAAAAAAAESatuxkud4Ai/ozHu6ZOx7t34ChPoyHpatuxkud4Ai/ozHu6ZOx7t34ChPoyAScAAAAAAID1l6mXdKNq4esWafTUa3pk1Aeg1RHQPvyUe1kkq/of4kPe046mZTfuwENc1cKmTstMvrmEKbvRChlskanCJeCyRFg84LiIJ5XlXQ9NMmUe9KangjMuO7ZcFVKRui/pw0/wCpu2HRlIjC9DlJmSz91bjVJZdNH+w4Z7u4AtNpr5StV/pzXsAdDlKE01I4qdMvJmHRfRRMmfWmWwnZyXbyreI6p3lYa9qmTLnMqsBGzaUtLUhcVCTNTiSNJ9cWSZ4kId0jUP6295r10124C3MW0e7eZ9Byf+IaFtedN6arIzCmpjR8/qCZqmL8U0uXMpUyvaIutNRnuP8AcYC6Ek5RGm6y0r1bd2n5C85H0yTaJjTcbEElbLq1khJG4ST2knnJK2S4cCEQyTlQro1HK4WZyrTvMZhL4pBOMRDEwWpDiT4GRk0K+29tvUkp0P6iq5nsqXIYaqVQ0RDQZpNJJR6KSZ9arB/zt27gN900asNQdAWNpCR03YlVUSCCgkJg5ttOH0dvtK3Kx+4BdSm9XsHBabIu7VyKeiqEOCUtD0neM3HjXtbLSUHgto3Dxjhx37hWXqrdexMuXVcJYSYLoFvK1xxxqlOdCI/9Yaib2SLHtY/rdsa7yktd1DcLSzZmLqmTOUhHziel6cSvJklhwmlZSZdsiztFnuC2V670yDSnY2k1PULHVXJpilEuXLpUyS0tJNg1GaywZbJkWMY7YCUbB30pvURbWWVrTDyzgozrHId7HRYZ1O5bayLtkfb7fESOXAhVfQPem3N36JqFNuaLOhpfKY1LD8u60iWtSM7XWkX7zPJi1BcC7YDIAAAKo6xvZz0ve/Jz6Eha4VR1jeznpe9+Tn0JAJ1uneejLKSb02rSeNSOAVnZddbWolGXaLZSf+IpTdLlmLa0wa4ei6amtXxKTNBPRC0wUORlwMjwpSi/cQv/ADmRS6oIFyDmkvhZnBuFhcPFsJdQr3UqIyP+4VsutybVh7seiIh+kCpyZv8AGOp99UKoj9pve1/0CAVps9ys0inEUudXPnT8jIlGmFpmmJP0RlKO0p+IccUpZ+0hKMCYeq8afe3FVDnwWXljx2m5MehrZR78tnMqk9xKYeWamXpxDLZmcGZnwN1tzYeR/V6Ggy/pGW4S70hFgO3bCTmfd2nfLARN1XnT7+VVD4rLyw6rzp9/Kqh8Vl5YlnpCNP8AzXyf+J3yw6QjT/zXyf8Aid8sBE3VedPv5VUPisvLDqvOn38qqHxWXliWekI0/wDNfJ/4nfLDpCNP/NfJ/wCJ3ywETdV50+/lVQ+Ky8sOq86ffyqofFZeWJZ6QjT/AM18n/id8sOkI0/818n/AInfLARN1XnT7+VVD4rLyw6rzp9/Kqh8Vl5YlnpCNP8AzXyf+J3yw6QjT/zXyf8Aid8sBE3VedPv5VUPisvLGD5XjT+e4ouov3SsvLEtdIRp/wCa+T/xO+WMHoJsARHi10m9zae3/wDTAU0ubytcJSVRNTK3k0VW0iinP5VIqllXoSIg09s4eJaXhST/AKLiFGX9I+AlG2HLBWlrmHTCVXLZnREe6RkZukUXCJPgWXUkSv8Aobu6PduHyWdF3QqqHcJqBoClYRRmiWUzDGcZEq4dEdiXlrSW7glLZY7Zq3GUuWv0A2Ns7DG7KqGhJpMG0GRx08M411XWnxJZbBceKUlvAfC5NCaQk00vwT0G+T7RziYKJREe8lPqUXH2jIxGuunQhX2ou8ckrejKkhZG7L4BEKlRqW2824laj20rSojI8K7QlLk3mkN6Y4NLaSQkpxMsElJEn8IURYIuGCIhZ2MikQEI/EOErobLanFEgsngiyeC7Z+0A5GVJyWGoCr3oJyfXO9O3IRW1DrmMfERCmD3b29tZ7J7s7jI9xD2pzyYmo+pJQ9Kpxdl+ayt0kk5Axs0iXmF7JkZZQpwyPBkRl7g6FafNV9B6mX6jaox+NdckDqGIxEbD9BPKjURGksntF1h793aEzluLACgFyrWzSyunTTRRM5caej5PcWRQ7zrH3i/5QZ5T7W8X/Lhv4irWvY/9HWU9q5sh+nFpgAAAAGr3O9jiqvBcV9EobQNXud7HFVeC4r6JQCKNBXYgWt8DM/MJ/EAaCuxAtb4GZ+YT+AAAAA5f8rwtKLq2WNSkpST5qNS1YIi6KW8zHUAVx1ZaIKS1dOyN6pJzOJQ9KCWln0sW0SFpUeT2iWhRmf7yAfP1U6paGtBp1nUWqo5bHziMla4SXQEFFIecffU3spLCDMySRmRmfcIxVzQRWEt0gaMp1cit5bNH5NO5qlRQ8DDpccwpPQ0KUlSk4SokkeTyWDISTR3I62lpiew8wjZzPaibZXtehZitsm1GW8s9DSkzL2jMyFxJxaWlJ/b2IoeYySGi6WfhvQrktUjCFN4wREZY2cdrZxjBYwAqDPtL2lXVjbhq4UrRAUo5NoQ4pUdLI5MIuHWZGakPMbRoJSVZyWyXtGK8aC6rnKLDai6KKbPTij5RAxK5XEqz0PawpKuh5+9JaSSvZLd1x5wJpnHIy28emT5yqtanl8ofXtql5utLL2iybe8i9sjP2xZm1+juhbS2hnNv5G1Ew0vnEMuGjo1tReiXdosGs1HktrHtY9oBy/0O6EYjU7amPqBqv5rTLTMcuFcgoPJNrwRHnjjf7g6R6S9D9JaUYWLdlUQ/NpzGkSYiYxeDWoi4JLGCIv9nPtjZ9LeluSaVKMj6Zp+aR81gIqKOK6JMuhqdSZlgyyhCCx+4TYXABFeqc/+DncT2pLEZ/hHKLRdyeVM6pbFzerImoZtKKhh4h+GhmmDa9DqWlBGjaI05wZnvPa3EY7IV/RcHcWi51TMxdfYgZrCuQjzsMZE4lKixlJmRln3SMRvpe0wSXStRUVS9PTWOmsvfi1RfRZkSDeI1YyRqQSSMtxdoBR7klEUpRtW3BomoZRDyq5khfWpyKWo9t6HbM0OJLP9BRHwwRkpJ4PiIakUyvTffWTdC6VnGIR6Yy2MXAofi8LbRDow0g0EojLeTKVf7XtjofX2gqlauvxE3ZlNSz+kamjWFQ8a3K1teh4hKmugrM0qQZ5UjZzvxlJHjORtGlTSPTmk6RTeU09MphN25jFeinIqaGlURnBFs7SCSnZwlJ8OOd4DndYieXOsByiMojrvQzEvnVeQxojFwuEw7m2Ww2vBYTklM7JkXDaz2xJFwqWYrblUqjp+IQlxmZ0m7CKSveWVsbJGfuKNJ/uFwNSmjql9StQ0dUE1mk1kc9pZ1T0HFyw2y6IRrQskOkpBmoiUjcRGW5St+8eVekKn1alYW9np1NDqdMEiCehHCaOEcIkkW0SdnaIzx/SMgHLbTNDTe5F9LU2UmzbkTLLdVDNIqIQvJEbfRG07WP6q0EZfrCzfJSNkzevUQ2R5JM5NOfciYgWroLRnRtuNQ9SXclETHFOJ8k+jwLykHDsqMi2uhESSNJKNJGe0at/AyHl0+aQ6d04VpXE/p6bzSYeqyJ9FxTEyNtXQV9EWs9g0pTuys+JH2gE98QGC4DIAAAAg7XB2JF1vAMR8xDe7J+w9RXgeE+iSNE1wdiRdbwDEfMQ3uyfsPUV4HhPokgN1LgMjBcBkAAAAAAAAAAAAAAAAAESatuxkud4Ai/ozHu6ZOx7t34ChPoyHpatuxkud4Ai/ozHu6ZOx7t34ChPoyAScAAAAAAKgcp1a2rbsafpfKqOkMVUMzYn0NFLhoQkmpDSUr2l4M95FkuHdEA6mNIFW13qRtBVUoksW9T0dAS9mfPNl9zhnIUyWRPFx67GMkOnh590fnGeO/wB0gHPOSWHriU6utQM3KlY9iQVDSkbAyaKUSTainFNESUIMj3HngRjd+TOspN7fWKj5PXtJKlU7anL7qYeZw6DdShWMKI+GPcF1tnOD7fayQwSSLJ4x7WOICANcdATqvtKVdU1Scmdmk4jIdlEPAwZJJbmH21Kxky7RKMU0shfXVbY+10goiX6fHI+CkzBQzcREpcJxZF2zw5j+4dTPdDhuwAo3X9sa7186TJjK65pVq3dx4CPVFyqGfJRMdFRkkbWTMyJaDUg1b8GrJEZdacVU1qP1h0BRsHQMVZZmcTuXNJgmZ7FoUtDiEkSUuLJCySsyLB5Iyzjh2h04xx3Yz7QxgskZ8e7gBUHk6dNFW6faJqSJrJ1n05qSNKYvQ7BdawrGMEfbzneLggAAAAACqOsb2c9L3vyc+hIWuFUdY3s56Xvfk59CQC1wAAAAAAAAAAAAAAAAAAAAAAAPDF/gr/6ivmHmHhi/wV/9RXzAKxcm/wBjLB+GZl9ZWLPLIzzjiXAu12xWHk3+xlg/DMy+srFnYh9EMy484okNtpNalHuIklvMz/xAcfWNOesOiLs1FWVEQUJS80mMQ6T7kqNtLESjaNRGplSVNmeMb9nO8943o0coknCTnLRH2v5JBeYHoT3Upqe1kXCqKBsi8ikqMlMSqDQ+kkNqewoyJTjy0rMlHjOEkkiLGcj1J5UuuDSLAFWVUzNis6TgVoXMIR1TcUySDMk5Wom0OIznGSPdkjMgE93sfrd6xWm8rjYOt27iSFEzWRJSS3iiD67BERFkjLgRF3Bewt5CkGoW7MsvhZvTjXEqbWxCTe4dPxJQ6zyplfR+uQr3D3C75cAGQAAAavc72OKq8FxX0ShtA1e5/scVV4LivolAIo0FdiBa3wMz8wn8Vd0N3LpCU6TbZQcdVckgotmUNIcYiJiy24hWOCkmrJH7RidfXdoXv1p3xqx5YDbQGpeu7QvfrTvjVjyw9d2he/WnfGrHlgNtAal67tC9+tO+NWPLD13aF79ad8aseWA20BqXru0L360741Y8sPXdoXv1p3xqx5YDbQGpeu7QvfrTvjVjyw9d2he/WnfGrHlgNtAal67tC9+tO+NWPLD13aF79ad8aseWA20BqXru0L360741Y8sPXdoXv1p3xqx5YDbQGpeu7QvfrTvjVjyw9d2he/WnfGrHlgNtAal67tC9+tO+NWPLD13aF79ad8aseWA20BqXru0L360741Y8sPXdoXv1p3xqx5YDbQGpeu7QvfrTvjVjyw9d2he/WnfGrHlgNtAal67tC9+tO+NWPLD13aF79ad8aseWAjvXB2JF1vAMR8xDe7J+w9RXgeE+iSIe1pXOo6aaVLowkFVkji4p2RvpbYYmTK1rMyLBEklZMxMNlN1nqKLt+lEJu/3SQG6lwGRguAyAAAAAAAAAAAAAAAAACJNWp50y3OIuPpBF7v8AdmPd0ydj3bvwFCfRkPT1YMuROmy5bLSTcWuRxSUoSk1GZ7B8CLj7ghGwmumyFK2WoiTzWt24KZwMnhmIiHcl8VtNOJQRKSeGjLJGXaMBcgBXTqhVgOcBnxfF+aDqhVgOcBnxfF+aAWLAV06oVYDnAZ8Xxfmg6oVYDnAZ8XxfmgFiwFdOqFWA5wGfF8X5oOqFWA5wGfF8X5oBYsBXTqhVgOcBnxfF+aDqhVgOcBnxfF+aAWLAV06oVYDnAZ8Xxfmg6oVYDnAZ8XxfmgFiwFdOqFWA5wGfF8X5oOqFWA5wGfF8X5oBYsBXTqhVgOcBnxfF+aDqhVgOcBnxfF+aAWLAV06oVYDnAZ8Xxfmg6oVYDnAZ8XxfmgFixVHWN7Oel/35ufQkNj6oVYDnAZ8XxfmhCV5tRlvb86gdOcJQk/KoIiWVYqIi0tQcQ30Bs2iIlGa20lgz3cQF+AGC4EMgAAAAAAAAAAAAAAAAAAAAA8MX+Cv/AKivmHmHhi/wV/8AUV8wCsXJv9jLB+GZl9ZWLNRsK1HQr8M8W006g0LT3SMsGKy8m/2MsH4ZmX1lYs5FRDcJDuvvKJtppJrWs+CUlvPP9xgOScund8+TOr2q5VA0Siu7fzmMVGQkahlwyPKjMtlbeTQoiPCkqSeTJJlgh6tzNat+tYlJR1taTtYmn4OdkmFjopaHnF9CNRGZba9lKSPZwrrVdbnGMiwenzWxXl2KxutXM9lMFB2XpiXxZQrDaSS90VjryNSzztKUlKi7REa07jwKzU5qp1aXKp+rLyUnM5bB0PTj6nXZJ6CZJk2SPehJGjoiiSWDUfRCPuH2gFkrkWlfshp4010dFudGioC4sg6M4e7KjiMq3DoAQohei8LF+rEabK5ahig1za4Ugcehkq2iadJ/C0kfEyyW72sC95cAGQAAAetHQLEyg34SJaJ6GfQpp1tXBaVFgyP2sD2QAV+XoF09uLNa7VSI1KPJnsOcf3KH56QLT0fG08hz+ovyxYMAFfekB08808h/gX5YdIDp55p5D/AvyxYIAFfekB08808h/gX5YdIDp55p5D/AvyxYIAFfekB08808h/gX5YdIDp55p5D/AAL8sWCABX3pAdPPNPIf4F+WHSA6eeaeQ/wL8sWCABX3pAdPPNPIf4F+WHSA6eeaeQ/wL8sWCABX3pAdPPNPIf4F+WHSA6eeaeQ/wL8sWCABX3pAdPPNPIf4F+WHSA6eeaeQ/wAC/LFggAV96QHTzzTyH+Bflh0gOnnmnkP8C/LFggAV96QHTzzTyH+Bflh0gOnnmnkP8C/LFggAV96QHTzzTyH+Bflh0gOnnmnkP8C/LFggAV96QHTzzTyH+Bflh0gOnnmnkP8AAvyxYIAFfD0BaeuHrUyIi38EOdv/AGhPErlsNJ5dDQMGymHhYZtLTTSOCEpLBEXuEQ9sAGC3EMgAAAAAAAAAAAAAAAAAAPA/DtxTS2nmkutLI0qbcSSkqI+6XcHyfUNTn5glXxJv7B90YyXdAfE9Q9OfmCV/Em/sD1D05+YJX8Sb+wfbI8kMgPh+oenPzBK/iTf2B6h6c/MEr+JN/YPuAA+H6h6c/MEr+JN/YHqHpz8wSv4k39g+4AD4fqHpz8wSv4k39geoenPzBK/iTf2D7gAPh+oenPzBK/iTf2B6h6c/MEr+JN/YPuAA+H6h6c/MEr+JN/YHqHpz8wSv4k39g+4AD4fqHpz8wSv4k39geoenPzBK/iTf2D7gAPh+oenPzBK/iTf2B6h6c/MEr+JN/YPuAA+H6h6c/MEr+JN/YP3C0hI4GJQ/DSWXw7yD2kuswjaFJPukZFkfZGM78ABFgiGQAAAAAAAAAAAAAAAAAAAAAAHhi/wV/wDUV8w8w8MX+Cv/AKivmAVi5N/sZYPwzMvrKxZqMh2oyGfh30ktl1CkLT3UmWD+cVl5N/sZYPwzMvrKxZeaRaoCXxcShtTy2W1OE0nioyLJEX93AByLr7SLqTtdD1xaOhVwU7t5VsaUYqIacQl9LPRCPC9+02WSIlYSojIu1kSnX1n6wsnoulVl7eRshmNX1BGJgqkYVGNJiGWXkGbjqEmslJI1JbQZ7KjwsixneWgaYrvTySyO++ouo6vdjp0wxGStqXRTyVNsKUolQ+w0rf8A61LZElO40pWZkZiELc6YI+7Gmyvb+z2pJnD1RLnXY6EjFROCUpBpyazURqUpRqwkyUngXEBdq41pomyWnbTVRsY4TsZL7iyBLyyLGVnEZPd2h0ALgOdE8uPNrr6UNLNRT55yJm79f0+3ExKzyby0RBp6J7p7jHRcBkAAAAAAAAAAAAAAAAAAAAAAAAAAAAAAAAAAAAAAAAAAAAAAAAAAAAAAAAAAAAAAAAAAAAAGD4Cp8fq8uXNbn17SlC2NOs4OkZmmWxE0KqEQZLWbaXC+5qhzMtyu6fumLYHwFXNI/s5anPfiz9UQA/JajdQuC/4L6v31qx/lg6Y3UL+i+r5asf5YWmABVnpjdQv6L6vlqx/lg6Y3UL+i+r5asf5YWmABVnpjdQv6L6vlqx/lg6Y3UL+i+r5asf5YWmABVnpjdQv6L6vlqx/lg6Y3UL+i+r5asf5YWmABVnpjdQv6L6vlqx/lg6Y3UL+i+r5asf5YWmABVnpjdQv6L6vlqx/lg6Y3UL+i+r5asf5YWmABVnpjdQv6L6vlqx/lg6Y3UL+i+r5asf5YWmABVnpjdQv6L6vlqx/lg6Y3UL+i+r5asf5YWmABVnpjdQv6L6vlqx/lh8mqtWV9qLpqaz6a6ZjhpbLYdcVEu+rRlWw2ksmeChd4t4It1S9jhcvwBGfRKAbRamuCuda+kKwKDOXJqCUQc1KDN3ohsdHZQ70PbwW1s7eM4LOM4IbUIq0o9i9Z/wB6Eo+pNCVQAAAAAAAAAAAAAAAAAAAAAeGL/BX/ANRXzDzDwxf4K/8AqK+YBWLk3+xlg/DMy+srFn15wf8A2l2u4Kwcm/2MsH4ZmX1lYsxMn1QcBEvobN9bTanEtJ4qMiyRf4AOb2oLkxKFVXMxnkNXi6OpqcxPouJkr0ayy10TaM1bHRDIsZM8blmRn2hKd0dHFO3Q0w0TQVMViiTU/DzBh1ByuIS4iaspS4k4dKzWSVqyo3CUolb0H1u7dSCBtmrV7RN5br3CuDGRFRU76MdgqfTEpSTPQ0qNBdDXnrDJOz1pJxjiYlaZSGTVByVNITOKrRVKz2lnPTqUrh4lLbr8Sk1NJaIi6/el1RFsGXXYM9xGQCwmoy28HaS02nulZe0TMNLrkSFtppJ5JBE9nZz2zF3SHOmfXJnV2dKulypKicN6cRFwJAmIiDLBvGmJx0T3VF846LFwAZAAABjIyIz1JXAmdqLD13WElRDrm0llETGwxRSTU3toQak7REZGZZLgRkAkvIyKj0oermrKalM6Zqu2LLMwhm4lLapLFmaSWklERn0ftZH1PU/q+777X+JYvz4C0gCrfqe1fd99r/EsX58PU9q+777X+JYvz4C0gCrfqe1fd99r/EsX58PU9q+777X+JYvz4C0gCrfqe1fd99r/ABLF+fD1Pavu++1/iWL8+AtIAq36ntX3ffa/xLF+fD1Pavu++1/iWL8+AtIAq36ntX3ffa/xLF+fD1Pavu++1/iWL8+AtIAq36ntX3ffa/xLF+fD1Pavu++1/iWL8+AtIAq36ntX3ffa/wASxfnw9T2r7vvtf4li/PgLSAKt+p7V9332v8Sxfnw9T2r7vvtf4li/PgLSAKt+p7V9332v8Sxfnw9T2r7vvtf4li/PgLSAKt+p7V9332v8Sxfnw9T2r7vvtf4li/PgLSAKt+p7V9332v8AEsX58PU9q+777X+JYvz4C0YyKTXWuPqfsVKpJUFSz23s0k8TPJfK4mHl8oiW3tmIiENGaVKfMv5xnwMXVYWa2W1GWDNJHgvcAeQAAAAAAAAAAAAAAAAAAAGD4Crmkf2cdTvvwZ+qIFoz4Crmkf2cdTvvwZ+qIAWkABjIDIDGS7oZLukAyAAAAMZwMgADGSPthku6AyAAAAAAADBqIs5MiwMgAi3VL2OFy/AEZ9EoSkIt1S9jhcvwBGfRKAfjSj2L1n/ehKPqTQlURVpSP/gu2g96Eo+pNCVDMi4mAyAxku6MgAAAAAAAAAAAAAAADBmRcTwAyPDF/gr/AOor5h5clgzyWCHiiz/kr/6ivmAVi5N/sZYPwzMvrKxaDHXHv4n/AHCsHJv9jLB+Gpl9ZWLLzFh6IgolqHc6C+tpSW3cfeKMjwr9xgOS9/dO9jLxaroqhbZV9MqWrieLe9NGISEJ+UE6SVLW2aicQraVg8pIlp45wI9uPovoHTFcaiaZvVcuax8jnJOPMKlcCaIWGJCkpPo2XVLSR7fFCc4IyyNm0cXetfpTunXkrvRI42TV1DzZxbE2dhDfNJbSzPf98kzzkjIj2iMxJOurW9p6vbZuaU3KYB+s6tfQhqTxTcD0M4J01l13RVYURYz1qSMjPHukE86qKfkFK2009S6l/Q65EzcWn1QioY8trbN7JGk8nkjFzC4DmycindNaQ9LEtqFLrMxh7gyEjae++ZR0dWwk/cLcOkxGAyAAACDtb/Yj3a97kZ9EoTiIO1wdiPdr3uRn0SgG+WW9iGjPBML9GkboXAaXZb2IaM8Ewv0aRuhcAGQAAAAGMlnGd4DID1o+ZQcrhlREbFMQkOk8G6+4SEl+8zwPxLJxATqH6PL46Gj2M46LDOpcTn3UmZAPcAYyRFnO4MgMgMGZFxMMl3QGQGMkZZyWAyXdIBkBjaIyzkgyAZLujI1V251KM1umkF1BAJqZbZOJlJvEUQaT3keznOMEY2kjyRGXABkAAAAAAAAAFX+UM9hanvfjI/rrYs3DfgzX6hfMKycoZ7C1Pe/GR/XWxZuG/Bmv1C+YB5QAAAAAAAAAAAAAAAAAAAYPgKuaR/Zx1O+/Bn6ogWjPgKuaR/Zx1O+/Bn6ogBaQfErKdqpik53OUMlELl0E/GE0pWyS+htqXs5weOHcH2xqV2/YrrPwLG/QLAc+6Y5VO6dZSqJm8gsA5O5VDvLaXEQUzcWnKSyotzOc+1gxbPSLq7p/VnRcfNJbL4iQzqVvphpnJ4pzoi4ZaiPZMlYLaSeyrfguB5Ihzl0Ka55VpmtNP6diqHqGp46Imr0Yy7K2SNhRmlKSSajLJHu7h8R7loo+v7G6Z9QV7Vy52lZpVK2GJUwpBoNjo0SSVLJOCMjSh5ZpMyLBpz2wHX2Gnsti452BZmEK9GtFlyGbfSpxGOOUkeS4kMvzyWwvojo0whWvQxbT3RHkp6EXdVk93EuI4TwlwaPttRFA1xb6cV1EXkgI5mNni4xl5cHGtbzdbNRng07kl7ZKV7Qm+bWymeprlAbj0Q5Us1klOTSAbjJmxAxBpU40RMKJtO1tEnDhpM9x/eHuAdB6rqm7MHqKpaAk0PTkbauLYV6Y7buJolw21mlTXXERoJWwZ7j3bXtCXnajlMPCOxT00gmoZkyS68uIQSEK4YMzPBHnujnXXsPHUPynljKbZm0ZEQkJJShDN1xRdHSUK8kzWktxmZF/eRCIdJunDpqa5vTJKmqqew1Oy6bqW3CQcaoiKJUbiUPGRnhWykjIknu3+0A6N6sruzazenOrq7pc4KKmcthkPwpxaDeYUSnEpyZJUW0WFbsGPY0z3nduxY2gaqqSIl8FUE/l7cQ5DNLJtLjh5I+hINRnjJbiyfumOaVqbgz2b8npqIoadR7swbpKIaYg3XlGtSWVPpI05PO4jTuLtEY1msdN0dItB1MX2brKds1NK2oIoRhmJNLDUK46hlttCUmRoNO2k85PaxntgO18REtQjC3oh1DLTadpbjiiSlJdszM+BDwy+bQM2hUxMDGQ8ZDKMyJ6HdStBmXHeR4HKTW9qMmdYUzp+pyezWZQFM1FLWZzURyUlFExREokGhJJPfktsy/rGPa0XXQkVDay4ak7XRdTRNq6ngVNuQlQMOI9DxiGjXlG1kiyaf7lYAdTvT2W7KFemELsreKHSfR09c6fBBb/AL4+5xGImfyuCjmYKImUIxGP46FDuvpS45k8FspM8nk+4OReiCwUx1D3EreIm9XzmDkVKVN6PhIWHfPBxaVmpCl7RnlOCxslgaPfGDtoh26s4nF4Z9ce5KIhyIlU2kkHENQcI8StzCz2lJSnJY2kns4IsAOh/KE6l6u0v2wktQ0ezLHo+NmaYN1M0YW6gkGkzyWytODyWMnkWekcxObyeBjVI6GcQwh40EednaSR4/xHJDVlcCcXP5N+zc8nsUuNmy5g0w/FOHlbxobNO2o+2Z43+2Y6yUZvpKTf2Nn/AKhAPsiLdUvY4XL8ARn0ShKJcBF2qXscLl+AIz6JQDWbEXFpe3Gku0UxqmoJbT8GVGynDswiUtbeIJrJJyZGo/aLJiHbp8rZZCgDehpHETOuI5KT2PSpjocMau4p1wyMvdJKhMthLe0zcPSZaGX1PIZdP4M6PlJE1MIZDpJzBNZxtEeD9ssGIeuryS1j7gG9ESSFmVERyknselMRtwxKP+cppzJn7hKIBqlm+VGo+vIhydV3VEgt5JiUr0PTjLMXMI9zG7aefJtLaCPiSUoVn+kXATL1SnTgW71y4T4jFeaEO2a5LikKAiXJNXVLSC4sm2zVD1EhyKgJg3neSXodLikLTndtJWky/onxExlybGnHBf8Am0g/3xkT5wBjqlWnDnKhPiMV5oOqVacOcqE+IxXmh+upsacebSC+ORPnA6mxpx5tIL45E+cAfnqlWnDnKhPiMV5oOqVacOcqE+IxXmh+upsacebSC+ORPnA6mxpx5tIL45E+cAfnqlWnDnKhPiMV5oOqVacOcqE+IxXmh+upsacebSC+ORPnA6mxpx5tIL45E+cAfnqlWnDnKhPiMV5oOqVacOcqE+IxXmh+upsacebSC+ORPnA6mxpx5tIL45E+cAfnqlWnDnKhPiMV5oYPlKdOHD1zIQvcgorzQ/fU2NOPNpBfHInzgwfJs6cS/wCbODP3I2KL/vQEC3R5Van7aVJDxVMzeRXUpSLe2PQcIiKl0zgc7zNSnG1tvJ7RY2D38D4iTLacqbYi5MEbUwnUXRketskeh55DbKDWZcEuNmosZPieyQji6nJTU7c2o2IWmpXJLV0rCObXoqDVEzKZRxdslE4tDbKeO7Lh8N5cBJtsuS2sVbOE6PHSOLrGYITtHEzyINRJURZyhtGyRb+0eQH2uTWjoeP0vwb0O+2+2c5mJ7TaiPGX1KLOOG4yP95C1GRVbk14GHgdMME3DMNQyCnExTstIIi3RCiLh7REX7hZ6ZeiDl8UUIZFFdCUTZq4EvB7Of34AUC1vaj9KELVr8ir+k1XAqyB+5vLk7CSXDKxubdf20drtFt47hCH9Ot/dE8LXUvQzb6Y0bM3HCQzMJ0koqESo+G0voilJPPbJOO6Y+HoHibJSeurhQt5il8JXrc2cSj1StGaXE9EPawayNJHtEWSMiPek+AlrXnOdKT9iZ+zKipp+s1tI9JiptpPogntsiIzU2WzsY2traPhki34AT5reOFfkFiTgFNrhF3Lp/oKmTI0GlT3WmWOJYPiPn1Byp1iKYnkfKY2ZTgoyAeXDvE3L9pO2lRpMiPb37yEJQzk66TzSkmfdFOPZuBIEp9EkroiWyiDNJHnfnBkW8W0mmhaw06mcVMI62coiY2KdU888vomVrUeVKPC+2ZmAik+Vr0/Z/Gk68Xf/eMdVr0/fnSdeLv/ALxJpaAtPePYsk397vlh0gWnvmskv97vlgIy6rXp+/Ok68Xf/eIy1M8pdZK59gK+pORzGbOTicSiJg4RD0BsINxbZkWT2uG8Wa6QLT3zWSX+93yxEurPRdZGhtNlyJ/I7cSqXzeXSOKiYWKaNwltOJbM0qLK+0e8Baayu+0FGeCYX6NI3UuA0uy+fWio3J5P0phd/d+5pG6FwAZAAAB4XnSZbW4o8JQRqM8doi3/APaPMPRm7ZvSyNbSeFLZWkj91JgOQ0BA17yneo2riKrI2nbcyOIWxBsQbiib6CSjS31pYJTikp2lKVnG1gsluG/taRb36Krw0nP7UTqZ1/SMa+TMzlTq9km2yxtJdQpWyZGRmZLThRGWPbPzci9GNSY7oUrHEliewcY265Dr3OJIi6Grjv3KSY6EXFvTQ9pImSsVhUkFIHJ2+cNAei1Gkn3CIjMskWCIslvPBbwEdaltaFAaXoOVFU3o+YzubIJyBkcraJcW6kzxtGSlJJKckZZM+JGWBrOnTlCbd6hqxepBmDm9J1alvbblc9YS0cQWM4bUSjyrB5wok+1kVXqyBar/AJYt2VVC2UVL4CEhzgWHi2kJ2YFpwsFw3rUs/dMeTlEYCEobWxYue04w1L54pLBrOFSTanCTFKJCjJPE/viyfaLACy9XcpDa6iK4rqlpxDT2HmtKLS0tCIZCzmDyjwTUOkl5Urt9cSSwPqaZdfFA6n4idy+SwMyks/lLKohyVzJCeiOslxU2aTPawZbywRlkhT+x1IyytOVVuS5NoNuMbhVvRDbDyNpBGaEddg+2Wdw+vQEjgaL5ZWqZfJIZqWwDkCThwzCdlBG5AQ63DIi3ZNajV7pgPl09ylMRH62o+ZPwtU+t6uEblMNTyYYjeZc6wlPutbXW9epR5yZ4xuFla95T61dAT6t5NMIGdrmNLutsdCQ02ZR7qzPZSx1+8sFnKiLiIDsrLIV/lbbpw64KHcYJlSiZW0lSSP0OyZHjhx35HwLCW7kdb8qNdNE4l7Ewg5e8841DRLRLbzhGyrZ4bsf4gLt3B1u25tbZSmrk1G9Gw0FULCHZfKWWiXGvqUklKQSDURdbtESjM8F3RoVlOUytrdyvYKjZhK59RE7mOCgSn8OltmIM9yUkolHsqMyPGS2T7uRXHXLJ4KacoZY2jYyGQzSbUthVNQRFhlKlxMTtqJPDf0NssdxBD7fK+0vJqbl1nJvLIWHl84hZq6wy5DoS2tSC6CrB44kk8GR9ra9sB4LgmaeWEp7GSxLmD3Z/9WsdPC4DlNETOInPKnUDHRmfRb8gglvGZYM1mwZq/wAcjq0AAAAAAAAAAAq/yhnsLU978ZH9dbFm4b8Ga/UL5hWTlDPYWp734yP662LNw34M1+oXzAPKAAAAAAAAAAAAAAAAAAADB8BVzSP7OOp334M/VEC0Z8BVzSP7OOp334M/VEALSDWrkS6JnFvqogINhURFxUsimGWUmWXFqZUSSLO4smZFvGygApLyZ9j6ithZ+oJLcKk1Smc+nbsQ0xHNtrUbakpwpKiMyMskYnXVhY879aeKxoSANqDjZjDJchHDThJPtOJdQRkXdNGM+2Jjxv4cRkgHMi0sz1Jw1N0LaeDsnKKfjpK+iCmNaThLcSy7BpNWTJvZIyUec7RKPOMYTkzEo2ksvXFL8pFcCuZpTsVCUjNpUtmDm5GnoL68tHgiSpRpzsKwR9wiF5cf/wChjhu4AKNXgsxXE05SS1twoSnYt+jYCE9Dxc3aWk22lm08nZURK2uK0lkyx1x9wVX0mXCuza6t75z22tENXBZXNVQkVLkRPQHYZ1S3DZiCyR7aEmRkaN333HcOxZ7iwRe3wFcNK2kZ3TNWNw5qmokz+FquMTGJScL0BcOZGo9k8KVtff8AHdw4EAqZanR9cantDN3oCKkb8VXlZraiikyFIJeUupURZUoizs7RmRme/gZiRa7sZXtQcllLrdQNMxkRWsPCS9t2TEaEvIU1FtuOY2lEnJJSo9xnntZF/wAiwRbhkuADmte3S1ceZWpsFcCkKfTMq1t/CMszCmIvZI32yUSlJ3nhRkZGk07W9JnjJ7hL2myrLy3QvDFTmqbWym2tCsQ5NsSt9tL8abxF9/0ciSWNrf8AeEfa/rC5WMdrcCUkksEWCAUO5P8AsPXFu273yur5JG0s7P5ityBed6Ge02pLieiINBqL+cW4Vrtpp3v7TNsa2sMm2MFAHNnndutX3ULQpnf9yaLB56JwJRmWyR78YHYUix7oxs5PPA/8QHIaqrGXornQ5Tdt12tmsFU9Jz7PQSfaUqIhtg/uyTNREnCjNOySj4Z4GOstItqZpaUIWhTa0wjRGlRYMj2C3GXaH1cZ7pfOMgBcBF2qXscLl+AIz6JQlIRbql7HC5fgCM+iUA/GlHsXrP8AvQlH1JoSqIq0o9i9Z/3oSj6k0JVAAAAAAAAAAAAAAAAAAAAAB4Yv8Ff/AFFfMPMPDF/gr/6ivmAVi5N/sZYPwzMvrKxZqNdWzDPONt9GcQhRpbI8Gs8HgiPtZFZeTf7GWD8MzL6ysWajXm4WFeedeRDtIQZrdcVspQRb8mfawA5tU5b6zXKQ3ErdqqKEmdr6+kLyG4hUNHoTFxyDNaTcW0psi63YIuB/fb1HxEoW45JSzlAz6HmsU7NqlWwsnEtTVxKmyMjyWCQSe33SMVsjOTeuHXFwZtO5LfSTR04cfdWUTLYs/RKUGozIlKaXtHgj4bh98uTG1CY3X1jcb+MbFecAWh1wSyFktO2NgoNlEPDM3KkKENoLCUp6OLYiiN7KFqC2lidNtLVRNVTydyu4kghnpipalHEGUQrrjNRmZ7jLieRe4AAAABB2t/sR7te9yM+iUJxEHa3+xHu173Iz6JQDfLLexDRngmF+jSN0LgNLst7ENGeCYX6NI3QuADIAMZAZH42d/bL3B+xjIDnlqH5P64sivVMbuad6qYpifTNxx6PlkQvoaeiOFlxbR7K0qJajMzSpJYM8kY1KgdA17L03ZlFZaiaobnENKlIVDwDbhOJUlKtrZMkpSSSzvwlJ7XbMdOwAUj1gaKKuri5lNXds9OIWR3AkTbTS2I4zJqMS1uQra2VdeST2MGWDJJbyGl2s0bXkulqIlN2L+zSXvxkmShMulssyppokK2kEWcbJEo1LxhRGZ7zLgOiAAKU2j0kVzb3XLXF1Y70sdpKedEOF9CRKlPoygiIltmkiI93EjH7Y0oV1BcoxNL2K9LnqLjoVuHQSIhRxTZlCMsntoNJFjbbUe5R7sC6YAOeF2dIN8KT1ox95LSx8lcgZ50L0UzMVmSmC2G23kGnZMlEfQ9slEZHlRlu4jdrF6UK9t7rTrq6s3blnqbqJC3GEQcSpTzSlJLrVoUki3GR7yMxdkAFSddOjKY6kGqcqmjJqzIbi0ws1QEVEZJqIbNRLJtaiIzThZGZHg96lZLeIIb0c6hNSV1KTnd/ZxKykFMmSoaBlajw6sjSalGWC2TWaEGat+dnGE8B0tABSWqdIVbv69ZDd+AKWOUdBwbEMppMSoopJoQaTM2zSRY39pX7hdkuBZ4jIAAAAAAAAAAAKv8oZ7C1Pe/GR/XWxZuG/Bmv1C+YVk5Qz2Fqe9+Mj+utizcN+DNfqF8wDygAAAAAAAAAAAAAAAAAAAwfAVc0j7r46nc7s1gz9UQLRnwFE7NajbaWS1BakIGuayltNRsdVbb8OzGrURuIKFQRqIiLfvAXtAV9LX3p6x7K0gL/eL8gZ6fvT1zrSD4RfkALAgK/dP3p651pB8IvyA6fvT1zrSD4RfkALAgK/dP3p651pB8IvyA6fvT1zrSD4RfkALAgK/dP3p651pB8IvyA6fvT1zrSD4RfkALAgK/dP3p651pB8IvyA6fvT1zrSD4RfkALAgK/dP3p651pB8IvyA6fvT1zrSD4RfkALAgK/dP3p651pB8IvyA6fvT1zrSD4RfkALAgK/dP3p651pB8IvyA6fvT1zrSD4RfkALAiLdUvY43LLt+kEZ9Eoah0/enrnWkHwi/IEeahdbtiaosZXkoldzZJGzKNk0UxDQzS17Trim1ElJFs8TMBN+lHsXrP+9CUfUmhKoirSjv0u2f958o+pNCVQAAAAAAAAAAAAAAAAAAAAAeGL/BX/wBRXzDzDwxf4K/+or5gFYuTf7GWD8MzL6ysVn5U24NX1jea3Nkqdm78ml032YmMNhZo6Otxewg1mW9RIJKz2eB5IWY5N/sZYPwzMvrKxVTlJKEug1quoyvqEpCKnxyeXtLZiEw5vMdFStZ7C0kZGfHukAjTULyf1W6NrYouxSVyItUbJoiHVGNNkphaDW4SELSpKsKInFllKiPJGfHfnp9pVupG3r0+0VWU0QhuZzOASqKJBYT0VJmlRkRcMmWce2OX18b+at9QFsZtQdTWthWJJMzaN9ctlDzTxG06h1OypT6iLrkFnJcMj2rO6jNXdjrcyiiqetbBvSeUtm1DuR0oeceMs5640voI+PcAXs17H/o6yf7TZF9OLTCiF6K3qe4dh9Ns/rOVtyaqoq4cgXMoJDSm0tvFEK3EkzM0keCPBmeMlvMXvAAAAAQdrf7Ee7XvcjPolCcRB2t/sR7te9yM+iUA3yy3sQ0Z4Jhfo0jdC4DS7LexDRngmF+jSN0LgAyPiVnUrVG0pOZ8+0t9iWwjsUtpB4UskJNWC7h7h9saJfb2F658DRf0SgFHoTloKOi2+iM21qZ1lKtlS21trIv3+4LNaXNatvdV8BHepZyMl85l6CcjJRM0Eh9tB8FpNKjStGe2RkfdIuAo9yW90LSUVZypIa4U4p+AjDmPRW25qlKnDb2e0RkZmXuD0NIsfJax5TCsqltkwTNBkUWZrhWjQwsloNJOJSZFhKl5WkjIsEfAB1xLgBGR9sceLWXW1N6k63ry3tI14/Dpl85eiH5rHGlK2YdDhobYQpKc4yk8l3BNWrDUbdmo78Utp7tvPSpqf+g4d6fzppBKdJxbaXDJJ4PCEtqJXW4MzPtAOjuSPthkj7Y5j0zd+8+i/U9SNubqVn64NG1c22TEbENkTkKa1m3tEeDNJkst6TNRGWDIyMfq4l4bxautWVXWstfWq6DpOkluQb8ZDN7an3mz2FrcPco/uhLSRJMsEkjMjAdNskfbDJF2xQqwV/rx2SpG7MqvnLYubt0TCPx8tqVTaUpmLaDNJNGoiIjI+sNJ4I8KMj3kK4UxcjUHeC1lRX0hr4QlPxsA69EQVIoWyhDrCF4U0lCjyXBWEqSrJYPOTAdhNoizvLdxA1EXEyIUZqTXNPJjyebd45NBss1c8gpa8SU7TULF7am1vEk/5vWmpJf1yLtCDrXSnUxUlDSC6NvL7wtxZ1Fqai4+jnnGkm2g/v0OJye9KiwadlJ9sskA6r5LuhtF3SHO7XhqduLTtTWkt7KZ41at+qYRuKnU7cSThQilK2FNEsywSEKSo87jPaQfW4Gy6eqX1E2qu7JoaNriEvTaWcNbMVNkOtmqCd64us2VKzg9nOVKIyPtGQC9m0RlnJY4htFnGSyOYVXXnvJrP1R1Zby11aOUFRlKLVCvR0IySnX3ErNKlrzvyakuJIiUlOEZMt43fR3qMubRmpeptPF4Z03VEzhGzelk9xha8IQokGeyW0lSFkZZIjI0q3qyQDoNks4zvGRyNjrzairsamrrWioWs3mCcjjUxERRpSiXwzR4UloyRuNW02W/tJMx1GtbK5/Jrd0/L6oiijp/CwbbMbFJPJPOJIiNWfbAbYAwXAZAAAAFX+UM9hanvfjI/rrYs3DfgzX6hfMKycoZ7C1Pe/GR/XWxZuG/Bmv1C+YB5QAAAAAAAAAAAAAAAAAAABrEyttSU2jX4yOpWTRsW8rbcfiJe0444rGMmo0mZ7iIbOADUfWkocv+RdPeK2PID1pKH7y6e8VseQNuABqPrSUP3l094rY8gPWkofvLp7xWx5A24AGo+tJQ/eXT3itjyA9aSh+8unvFbHkDbgAaj60lD95dPeK2PID1pKH7y6e8VseQNuABqPrSUP3l094rY8gPWkofvLp7xWx5A24AGo+tJQ/eXT3itjyA9aSh+8unvFbHkDbgAaj60lD95dPeK2PID1pKH7y6e8VseQNuABqPrSUP3l094rY8gPWkofvLp7xWx5A24AGo+tJQ/eXT3itjyB+itNRBcKNp8v8A5Wx5I2wAHhg4RiAhGYWGZbhoZlBNtMsoJCG0EWCSlJbiIiIiIiHmAAAAAAAAAAAAAAAAAAAAAAAeGL/BX/1FfMPMPDF/gr/6ivmAVi5N/sZYPwzMvrKxaBSCVvNJGfayQq/yb/YywfhmZfWVi0YD8dDLuF/cHQy7hf3D9gAqxrzSSZdZTCSIiudIT7hf68xaYVa17fi6yf7TZD9OLTAAAAAIO1v9iPdr3uRn0ShOIg7W/wBiPdr3uRn0SgG+WW9iGjPBML9GkboXAaXZb2IaM8Ewv0aRuhcAGRol9j/8zFcl2/SaL3f7pQ3sfPncmhKilEbK5gwUVARjSmH2V5w42osKSeDI8GRgOQXJv6K7a6lLXzuc1jBxb8wgpj0FtTD5oTs7OSyQ6Z2W00UFp5ksRBUZJ24DoqTN15XXLcPB8TPePq2gsJRNh5ZHy6hpKmQwEa90Z2FacUpG3jGd+T4e2JBWklpUk07STLBkfb9oBzK5KYknfC+i1ERqKZvdcfH/AF6x8m+Ezh9O/KuyyvatcOW0pUMKwbEycI+hNp9DIh1qUZdpK2zyXaIyPgOgdtdOtAWfqSdzuj5A3JI+dLNyOUy6tSXlmZqNRkozwZmZngsEPdu/Y2iL7U+iTVvT0LPYJCuiNG8nC2V4++Qot5H/AIAObus6vZHqW1sWjpmgJk1UDcnJv0dHQJm42yo3jWvCi3KJKMGZl2zxxGNLFWSjTFygl6JHcKPYp4p1ERL8JGRytlpSHH1xDfX8OuQ6W/ukZC/NmtINrLCxbsZR9Msy+McLCohwzdcMu5tHvIe1ezSlbDUK7DRFc0rDzaYQqOhsxyVKaeSnOdnaSZZL2jAVbq7VcjWtbu/tuaLpOIdgJdKYhuAqBERttTBaFHs7KNgsZJG1jaM8GW4U90zW40yzzTpMamuhUEwllUSZ91uNlMNG7L0Qnay30NkyLbykyLce407x2EtJYiirISNUoo+RsSmDUeVEgsqXu3moz3n+8RpVvJ/WMrWs3qpmFDwqJq+96Ie9DrUhtxzO0ajQW7JnvPdgBENJzmwdndDL83VI6jm9op88aHZdGwSVxhG6ai2lpJRbCTNJGStrcSkn2xTK/dlLR2coKX3XsTeeKhJm9EMOwtPHFJVGddv2D2DJSTRwMlpMu1kx2Rct1Tj9GrpN6TQr9OrY9Drl7rRGytGMYMvcEFyfk5LByKom5zBUOy1Etr6I22p5a2m1ZyWEqMy3AIDvJcKzF7qAs5RuoaHmsoq+fSRqYQlTQ7KWWIZak7KzW8f3u0aCUpJpMk5LenJCB7cygtJetW39MWnukqv6ZnikomcBCrJbTTJqNJtubKlIMyJJKIyPJY38R1Fupp3t9emmoWRVhTEFOIGD/BScRsqhzPtoNO8vc4DVLQ6LbS2OnKptSVLNwUyUWz6JdWbrhF3CNXD9wCiujqsZPpd1xXspe4ca1Ta5y+5EQkZMFbLSk9GceR154LKkPbj7qTLiPYtFPYTULyqM9rWk3Dj6Vk7SUFM2kmTTpobQj/pGS8d0kC+97NKNsNQr0NEVxSsNNI+GR0JmPSamnkoznZ2kmW73R9ez2n6hbEypcvouQsSdhw9pw0JytauOTUe8+1/cAoXowSlXKTXvUZESiU8Zbs469I6eCMqU05W/oe481ruQ0+iWVPNSV6OjWnVmb5qMjM1EZmWcl2iEmFw3gMgAAAAACr/KGewtT3vxkf11sWbhvwZr9QvmFZOUM9hanvfjI/rrYs3DfgzX6hfMA8oAAAAAAAAAAAAAAAAAAAAxku6B8BR+nJFd2/d8b0wspvhOaHk9LVAiXwUtg5XDxKOhqYSv75eDLfn+8BeEBVUtK16iIv8AhSVL4ghPLDpVr1fpSVL4ghPLAWqAVV6Va9X6UlS+IITyw6Va9X6UlS+IITywFqgFVelWvV+lJUviCE8sOlWvV+lJUviCE8sBaoBVXpVr1fpSVL4ghPLDpVr1fpSVL4ghPLAWqAVV6Va9X6UlS+IITyw6Va9X6UlS+IITywFqgFVelWvV+lJUviCE8sOlWvV+lJUviCE8sBaoBVXpVr1fpSVL4ghPLDpVr1fpSVL4ghPLAWqAVV6Va9X6UlS+IITyw6Va9X6UlS+IITywFqhjJCq3SrXq/SkqXxBCeWNTuzYu9ttrY1TVbOpqoo12Ty1+OTDrkUKknDQg1Ekz2jxw7RALqjIjzTvUcxrCwNtJ9OIlUbNpnTUtjYyJWREp55yFbW4syLdk1KM93dEhAMgAAAAAAAAAAAAAAAAAAADwxf4K/wDqK+YeYeGL/BX/ANRXzAKxcm/2MsH4ZmX1lYtGKucm/wBjLB+GZl9ZWLRgAAACrOvb8XWT/abIfpxaYVZ17fi6yf7TZD9OLTAAAAAIO1v9iPdku36nYz6JQnEfFq6k5RXVNTKn59AtzKSzFlUNGQbuSS82osKSeDI8GA0Oztx6ShrT0e07VEladRKoUlIXMGSNJ9DTuMtrcNwK51HYL/yskfjJnyhDiOT308ISRetfKiL/AONEecGep76eOa6VfDRHnAExeudR3fZI/GTPlB651Hd9kj8ZM+UId6nvp45rpV8PEecDqe+njmulXw8R5wBMXrnUd32SPxkz5QeudR3fZI/GTPlCHep76eOa6VfDxHnA6nvp45rpV8PEecATF651Hd9kj8ZM+UHrnUd32SPxkz5Qh3qe+njmulXw8R5wOp76eOa6VfDxHnAExeudR3fZI/GTPlB651Hd9kj8ZM+UId6nvp45rpV8PEecDqe+njmulXw8R5wBMXrnUd32SPxkz5QeudR3fZI/GTPlCHep76eOa6VfDxHnA6nvp45rpV8PEecATF651Hd9kj8ZM+UHrnUd32SPxkz5Qh3qe+njmulXw8R5wOp76eOa6VfDxHnAExeudR3fZI/GTPlB651Hd9kj8ZM+UId6nvp45rpV8PEecDqe+njmulXw8R5wBMXrnUd32SPxkz5QeudR3fZI/GTPlCHep76eOa6VfDxHnA6nvp45rpV8PEecATF651Hd9kj8ZM+UHrnUd32SPxkz5Qh3qe+njmulXw8R5wOp76eOa6VfDxHnAExeudR3fZI/GTPlB651Hd9kj8ZM+UId6nvp45rpV8PEecDqe+njmulXw8R5wBMXrnUd32SPxkz5QeudR3fZI/GTPlCHep76eOa6VfDxHnA6nvp45rpV8PEecAadr3rWnp7aGnYaWz6WTCJOsJGZMQsY26syKNbyeylRmLaQ2+Ga/UL5hAkt0FWBkk0gpjBWzlTEdBvIiGHiceUaHEKI0KIjWZbjwJ+QkkISktxEWCAfoAAAAAAAAAAAAAAAAAAAGD4Crmkf2cdTvvwZ+qIFoz4Crmkf2cdTvvwZ+qIAWkAAAAAAGMjxriWW3UtqdQlxXBBqIjP3CH6UZERmfa9rI4rarri1fW+o+4t3KamUSVPWym0thCTCvqJpaEPpSRmRHg9pe4/aAdqyMjLJHkgIyPtiGrkajpVbjTU9d5cG7OpYzL4aNOHhVJJbvRVIQREZ7txr/wABrFa6zJJR2k+X3zVIY2MlUazCu+laHEE8joziW8GZ7txq7XEBYzI+NMa0p+UT2BksdPJbBziPI1QkviIttuIiCLibbZntK/cRivF8NdlK2UtPR9WuyiYzmbVcls5TT8Hs9HdNSSMzVv3JIzJOSIzyZYzkVDqm/kNf3Xvp7mSqem1IzmAWbEfJpu1svQ6zWZpUR4wpCizg04PukQDqFLq2p6bz+OkUDPZbGzuBTtRUth4xtyJh05xlxsj2klkyLeRcR9rJbt/EU4shWtr060L1w0ppmJkNWy2BW9PKgiokjh4hsnWzWZJz1uD2VHnuDTJzysVPIj5jMZHbKqp5QMve6BEVRDNoSjBHjbQhW7ZIzyW0ouO8iM8AL9GZEWTPBDI1e3VxZFdSi5TVdNRqY+STSHKJhniLZPZMi61RcSUWcGR7yPcNnLgAyAAACLdUvY4XL8ARn0ShKQi3VL2OFy/AEZ9EoB+NKPYvWf8AehKPqTQlURVpR7F6z/vQlH1JoSpkBkBgzwMgAAAAAAAAAAAAAAAAADwxf4K/+or5h5TMi7Y8UX+Cv/qK+YBWLk3+xlg/DMy+srFoxVzk3+xlg/DMy+srFowAAABVnXt+LrJ/tNkP04tMKs69vxdZP9psh+nFpgAAAAHzp5NmpDKI6ZRJL9DwbK33NgsqNKS2jwWSLgQ+iNXud7HFVeC4r6JQCukm5Ruj6hljExldtbozKXxCdtiLg6ZN1l1P9JCycwovbHudUCp/mnu38lFecG0aC1GrSDa3J5xJmS3+4J+xgBVnqgVP8092/korzgdUCp/mnu38lFecFpgAVZ6oFT/NPdv5KK84HVAqf5p7t/JRXnBaYAFWeqBU/wA092/korzgdUCp/mnu38lFecFpv3j4jddU29MvS5uoZUuYbWz6ETGtm7nubG1nP7gFdOqBU/zT3b+SivOB1QKn+ae7fyUV5wWmIyPgZGGfbIBVnqgVP8092/korzgdUCp/mnu38lFecFpgz7ZAKs9UCp/mnu38lFecDqgVP8092/korzgtNn2wyW/eW4BVnqgVP8092/korzgdUCp/mnu38lFecFps+2W8Noj7ZAKs9UDp/mmu38k1ecDqgdP8013PkmrzgtNkt+8twZ34yWQFWeqB0/zTXc+SavOB1QOn+aa7nyTV5wWmABVnqgdP8013PkmrzgdUDp/mmu58k1ecFpgAVZ6oHT/NNdz5Jq84HVA6f5prufJNXnBaYAFWoHlBqPiKhkEpmFBXGp453MmJTCRk6p/0LDeiHVbKEqWpzjxPGDPBGLSpzslnjgVZ175KVWW3/wDOZJvndFpgGQGC3jIAAAAAAAAAAAAAAAAAMHwFXNI/s46nffgz9UQLRnwFXNI/s46nffgz9UQAtIAAAAAANCvpcdm0tnqzrB1xLZyaVxEU2a+Bukj7kn96zQX7xx2snTGoea6eqvlVLWshKhpSvSdiYqaPKQp50zVklI+6EeUmWSyXEdgb9WTkuoW2k0oao4qYQsnmJtqeVLXUtuH0NxLiCM1EeS2kpMyxvxjI+tay28stHQUnpKTbZyyVskwxt4zsl3fbAczaQuQ9cLki6+kUQanJnSnQpa60o96GURTKkmfuJJf9wXrrqRp5IWjJSUzhlzGOTAQrUMh1JuG40+TjhGWc5SSTz3Nwu5bvRLQFtiuJByw5g/IK7QtM1k8W6S2EmrayprrS2D69WOON3cETyjkmLQy2Sz+TuTCoYiAmhJQ3txKTcgkpcS4RNGaDIsqQnJmRmZZLJZAV0um9CwN5dEL85Uy3JyhodO29gm0LOJa3qM92Mmnj2hJOpyNkz/Ki2LhoFTSptDpbKPS2ZbZGo1G1tdzrS3ZFkbraHqHvBaOl6EnT0elumtkpZNYdwkRTWC7asHkj+f3BrdCcm9bSga1oqrIOYT2In1NOKdTFxUUTio1ZnkjeM0mZ7O8iIjLGQFTDhZhGaldcUPKkuLj3aLmiWktffr65G0ScdsyMyL3RvmlSc0pBcljXT0REQaGW5VNYeNS4aSV0c2lklJke/aUZls9s8lgXBoLSzStvb4VtdGAiJg/PKuZNiPholaFQ5JNxKz2Ukkj4oIt5nuEJVRyUlpJ/U0VMIKNn0jlMXEeiX6fgov8AkJrznBIPgXtb9wDz8k21Hw+kKUNRyXEJOPinWEOZz0JSzNOM9rfuFzS4DX6EoeUW5pWX0/I4REFLIJommWG04SkiIi4fuGwFwAZAAABFuqXscLl+AIz6JQlIRZqmz0uFy8Hg/SCM3/7pQD86UjLpXbQHncVISjPxJoeeudR9tLdxqIKc1dAemzrhNNyqBcOMjXHD3EhLDO0vJ/qkXdMhQmZaPdQ94NNttYqkb0k9JIilpW6zTUUlcvQw2cI2aWkON7e2ZFhO0rZzjOCFQkaRb/2iuXAOTaAjKLin3TZbq13okZCsmZ/frehm3lt5/pGkjLt4Ad8ZRGqmcuYi1QkRBm8gl9BiUkh1Od/XERng/aM8j3xyogNCmsCbQbUZBX5p6MhXk7bb7E9jXELSfbJRQpkZe2PY6QLWXz3yPxzHf5UB1QAcr+kC1l898j8cx3+VDpAtZfPfI/HMd/lQHVAByv6QLWXz3yPxzHf5UOkC1l898j8cx3+VAdUAHK/pAtZfPfI/HMd/lQ6QLWXz3yPxzHf5UB1QAcr+kC1l898j8cx3+VDpAtZfPfI/HMd/lQHVAancG4krtpI1zqeMR3pOyZ+iYyDhVxKYZP8ASWhslObPtpSoi7eBzb6QLWXz3yPxzHf5Ua1cHSNqottTMXNalv3IYaAJBpNoppHvOxJ4x0JtpMIanVHw2CIwHUC395KGunCofpGrJTPkqLa2IKLQt0i/rN52k/vIht0VgoN7tF0M/mHAyzeg/UZcGcFNafkMfTDLzprKczKIVLU7zzt7HWu4PiX3P9w6r6ZNP967SwCV3CvKdZQ6GDR6TFAm6ygsbtmIWaXN3tpAOTf7GSD8MzL6ysWjFXeTg7GWE35/01Mt5/2lYtEAAAAKs69vxdZP9psh+nFphVnXt+LrJ/tNkP04tLkBkAAAGr3O9jiqvBcV9EobQNXud7HFVeC4r6JQCKNBXYgWt8DM/MJ/EAaCexAtb4GZ+YT+AAAAAAAClXKt3TqW2unFtqm4x+WKnUwRAxkfDKNLjTJllSSV2iVwMxXakeTKkN0dPsBWNB3IjplXsTAIjGIgo1KoVyI2M9CWZZW0e/G8zNJlvIdAdS8mtdWduYqk7qzWVy+RzUyS0mYRzcM4bxH1imTWZGayM92M47YoHc3ky7h6fpZM6xs5dONJMqSuNTLXlqhndlJbWEqIzQtWP6RFkBZCVX0rDRZpYpyOvnLY6qZlBRfpW9HyRxEQZNKM+gKdU6bZ5x1hngzPZ9sTZcDUrSlvrAJu7FHExlNuQLMfDtsknozxOkRoQRGZJ2t/d7Riqlna7nHKBaAaxktTNMRVYQDbkGUcSCSl6IbSTjD+yXBWMEeNxmR44io07vVH3P0J2ktDDGcTPH6ndlMTDbyWhthSVskfb+9fIsf1QHQ+qOUat5SVmqRrqOk8+VGVWpZSqmmmELj3CSvZ21ES9kk4wojJR5zuIzyQ8NiuUaom8dZnRkwpyoaIqxxhT8HL56wlv0aREZ7DSiPO2ZEeCMiI8HgzEQ6tdFVdx1MWiqq0ZMR1Q0BANQiJVEGlKnm0GS0LQS8IUZHlKiPBmWMGNWtFq2cqPULSNL6h7OwlNV4pSYeU1MxDKZW2sz61JoVxbNW0W0lZ4MBrVP8AKOzGO1uTKcvyerPUQuEblEPTSIZBvsOdYSn3WtrCT2jWec52TLcLpamNcND6bZjKJLFwU1qmq5u0T8FI5CyTrxtn96tWTLCVYPBFkzwe4VTsrAw73K4XTYdh2VtdBUfQ1IJSSP0OyfDGOIjC880uGvlTaxcoSSS+o6jlrEOUvl81VhhLKYJhWU5Mt+VGf7zAdA9NutSitSkPPYaXwc0p6ppGjbmEgm7JNRKUYMyUjBntFu9oyM+BEYiKY8rXbCCpWcTJqnakiJrATB2AKToYaN1ZIIjW+aicNKGiMyLJ78njB8RF9nbO3+PV9E3driioGnISYSt6BmnpS4kmlp6DsEo288T2U7+6n2xqfJn0PJqgjdQkZMoCHjnsxEPh5olESD6NnGeGdo+H9XuALD1FyrtqZdaqS1dLZdOp3GzF11p2RwzKPRMAbZo21vqNRpSnr07JkZ7WfaPFidPV/wCmNS1toKtKTW8cC8tbD8LFpJL0K8nG004RGZZwZGWDMjIy37xzn5Mm3cimlrr9Oxsuh4xaGomDJL7ZLJLaWV7OM8N5nw/qiU+RZdcRZquYU1mbKJ8ZoSfaM2WyM/8AAgHRcuBb8+2MgAAAAAAAAKs6+PxVZX9psl+d0WlLgKta+PxVZX9psl+d0WlLgAyAAAAAAAAAAAAAAAAAAADB8BVzSP7OOp334M/VEC0Z8BVzSP7OOp334M/VEALSAAAAxkskWd59oZEE64qpnFEaU7jTyQTF+UzeDgUOQ8ZDq2XGlG+2nKT9wz/vATqSiPgZGGRyjtFabVZcWw8runSF8YyNjYuFXFtSCMUrbe2DUfQkq2TSalGW7ON58d4tNok1mJvtZmfTiuFwkkntJKU1PH/9WyhCSM+imWTNJnsq3FneWAFtsl3QMyIt4qvb7lJLLXIr2CpaXzOaQbsxiDhJdNJhL1swUa7nGw24Z7jyZF1xFxIbHqC10Ws02z5iQVPMI2MqJxsn1SqUQpxL7TR79te8iSRlk955wXABYUMkIytlqKt/dq2j9e07ULDtNQrS3YuJiPuSoQkFlfRUnvSZER57R43GYg2WcqbYWZ1a1JEzmaQ8I7EFDNTqIlq24BavaWZ7RF7ZpIBb/aI+2QZIu2QiG/Op+gNOlFQtS1fNjTBRyibgWIJBvPRazLaLoZcMY3mozIi7oobcvUhTt/tbtgZzRM5jylewpmMgX0uQ7rLpOHlLrRnx2fd7pZAdUMjIrrffXdazT3VDdMz+OmEzqImyeelckg1RT0O2ZZ23OCUljfja2sdoSpaa71K3uoqCqujpoibSaKzsuoI0qQouKFpPeSi7ZAN2AYLgXbGQARbql7HC5fgCM+iUJSEW6pexwuX4AjPolAPxpR7F6z/vQlH1JoSe8wiIQpt1CXG1blJWRGSi7hkfERhpR7F6z/vQlH1JoSqA8EPCNQjCWWGkMsoLZS22nZSRe0RcB5wAAAAAAAAAAAAAAAB6sVL4aNW2qIhmn1NK22zdQStlXaMs8B7QAPwRYLhxH4ivwR79Q/mHmHhi/wAFf/UV8wCsXJv9jLB+GZl9ZWLRirnJv9jLB+GZl9ZWLRgAAACrOvb8XWT/AGmyH6capqx5Qea6arqro6DtdH1cyUE1FemMPFLbRlecpwTKyPGC7ZcRtevb8XWT/abIfpxZiIlMFGu9Efgod9fDbcaSpWPdMuADmv1YmoS3esNNvjzn+XDqxVQ8w02+POf5cdJfSCW/m6D+Lp+wPSCW/m6D+Lp+wBza6sVUPMNNvjzn+XHy6o5XKfT+mpvLFWNmkMmMhXYY3lRrhkjbQZbRl6HLhnukOnPpBLfzdB/F0/YNZuZI5am3VUK9LYTrZXFGX3BPHoSt/ABG+gk86P7WH/7lZ+YT+IA0E9iBa3t/6GZ+YT+AAAAAAACuutTSRA6trbMSY48pPUMreVFSqYqQakNuGWFIWRGRmlRERGZbyxnAp3H6V9bs1pX1v4+40A5SnQPQTkQUapSnIYiJJI2uhbZ9aREWTL2zHU4AEB6RdNMv0s2gZpf0YmKiXFKfjotZEknFqzk8ZPGPdPcQ52acrOySuuUorT1PPlMaNp2dRczQ4yeWWnluGZEjG40kslJIy4pQQ6e6jrGwuom18dRsVOY6QJiHm30x8vPZdQpB5Is54H2/aGo6VdH9LaVZDGwkkeemMfHK24mPiSLojhnjJe5uL/EBqOsDThc64tYUrcG0daHTtU0830JUrjXlogYxG2asmlJGRrwoyPaIyMiIskYh+m9JV+r1X2pOvr6TaStsUwolQMDJSMkmaVbXXdwsnxIzMx0NyXdDaI+2QDnrdvRlemm9Y8feW0M5krcLOSaKKYmDi0LaLobbbqNkkmSiUTeSPJYyNp1W6Ma/q+8VO3vs/OZfIbhwLDaI6BmBqSzEmgsEraSlRGeyewaTLeSSwYvDksZzu7oZIBS7TJpwvXL7m1NcW71XpjZ3NIRcG1KYF9ZwLSVIJJdZuL+angRY2T3nkePRXo/rnTy5daHqR+UxCKnedcgXJe+pxsiVtEW3tISouJZwRi6u0XdLucQJRHjeW8BSrRXo+rnT5Rl0ZBUkRKn3qjdeXBPwEQtTPXoNJbeWyMuJGeCMfa5PHSzWWlijqsklXOy2KfmEyOMYflbqnGzRsJSWdpCFEfW5xgW8ABgtxEMgAAAAAAAAKs6+PxVZX9psl+d0WlLgKta+PxVZX9psl+d0WlLgAyAAAAAAAAAAAAAAAAAAADB8BVzSP7OOp334M/VEC0Z8BVzSP7OOp334M/VUgLSAAAArtyhe/RndHwe39YaFiRHWoG0iL72eqegnZm5Jm53Dkwcc2yTymcOJXkkZLP3ndLiAhrQDPIGmNDdEzabRLcDLYKWuxEREvKJKW20qUZmZnw3ZHNWk35pE6TNUlWyppyGkc4nMvYS81lKVtnHpUrGO0ZKSRl3FGLcwHJAPNSuGksbfSoounGTwcoal/QWlJ35SX3dRER5/omLbybSnb2Q2DjrPwcoUikI2EXDRBLMjedUo89FUrG9wlElRHjiRdwBzpfsPqJvhpitvI4CSUHK6VlzcLMJFN2Y0oeMylKuhmpZ564yUZnslv3bxJGjyXt1Ryh98n6qYYjZ5Bk6whmJSTiWyJSUK2CPtERJL9/tiRaP5M+ZSyNpyT1LeKoajtvTsaUdAUn0DoKMlnCFOk5nZ39ot5GZESTMbjfHQKqvLuPXMt7cKZWuq2Lh/Q8e/LocnURRYJO1jbSZGaS38cnvAQnqyoy1lqNGl54WzE0hXVxkxgET5iAmHon0MaopBGkyIz2CUSsGXcHhvbQtHw3JKQMVDS6CbWxLpdEwsYhtPRejqiGy2tst6jVtGk/1j7gsxZ3QnQVqbI1LbiKKIqZip0LKdzOJIm34tRpMiWW8ySaT3p3ng94hOF5KuMiIGX0pO7z1BOLXy+LKKYpVUKSE/fGZI2uiHgsHjOPbwQCuFXvv1fVOiGEqo1Pwb8rZWtMSZqJ5fohH3yT4meEpwf/aJg1T07IZHylFk3ZTCw8NGxcO2cc3DIJBGaVmTeUl/VwQsrqd0OU7qDo+lJZLZk7RU4pRSfSeaQbBOGygi/wBWacl1pmRHkjIyMiMR9T3JtPwV36NuXPbrzip6okqtuOiZjAJWqYGnc2RKNz7klKetxhXDO4BVq1a7vTfW9f2It5JaZn1RFNYtiLbqhZ4bhyiDIkoLhs4SRe5jui3PJyWDr6wtO1tAVoqVJh5jMii4KFlEb6IZYyXXpIv5hZPh7Q9q8mgSIqy8cdc629yJpa6p5m10KZnL4YnW4rO5S/viNKjLjnOT37hLumXTdKNM1v8A1PS6Zxs9jX3DfjptH5N2JdPt7O0rZIu0kjP3TATCXAhkYLgQyACLdUvY4XL8ARn0ShKQizVL2OFzPAEZ9EoB+dKPYvWf96Eo+pNCVRFWlLsXrQe9CUfUmhKoAAAAAAAAAAAAAAAAAAAAAPDF/gr/AOor5h5h4Yv8Ff8A1FfMArFyb/YywfhmZfWVi0Yq5yb/AGMsH4ZmX1lYtGAAAAKs69vxdZP9psh+nFphVnXt+LrJ/tNkP04tMAAAAA1e53scVV4LivolDaBq9zvY4qrwXFfRKARRoK7EC1vgZn5hP4gDQV2IFrfAzPzCfwAAAAAAAAAAHginfQ7DrpkaiQk1YLieCM8DnfMuWOkMHPppK4a2FQTBcBEuQy1wziFEZoUac7uGcdsdDZl+Lov/AOEr/qmON2gy/wBaeyF0btndCcQsqYjpi4UJ6Klz8WS1E8vOCaaXj3TAXM078p9bm/Few1Fxspm1G1HGL2INE0Qg2XnMbmyUlRmlfc2kkRi1teVnL7d0XOanmznQ5bKoVyLfVki61KTPcfayOSGoa4FD6rNZFsU2Sgzi0y7oKY6cwsCuGQsyeNRKNCkpVhBHjaMiPrsFuIW75VO571FaXypuFf2JxV8YzK0tdtxosKd/+gv3gNj0g8oNTWrSqJxT8DII2nZnAQqYttuMdQsohJmZK2dnhjrePdG56v8AVpLtI1HyafzORRU+bmUWcIliEcShSTJOc9cKCSqgndE2qTTzUKmlQEpqWRMS6bOqLZSUQfWPlj3DaV+8TjyxjCIy2FuGDwaHZ/sH7hpSQC2mmy/sm1K2nlVcyaFegWIw3WnYKIUSnIdxCzSaVGW484JW7tGQgSk+UypSrtSybQwlMzEnXJs9KUzdTqOgm43tEpWyW/BqSe8QVoTukmwlAajaPnLpwiKSU7O4UlHg0svN7KMZ/wB2f+0KtaW6ei5TqzsPNY/a9MakJc6iFLLrlqciIpO0fuk0R/vAd6i3kQyMFwLAyAAAAAAAAAAAqzr4/FVlf2myX53RaUuAq1r4/FVlf2myX53RaUuADIAAAAAAAAAAAAAAAAAAAMHwFO5Xa7UBay8N1p3REro6ZSCsJ2iaNKm0webebImUt4NKWjLtZ4i4oAKzNznVarG1TVvU/wDzOIP/ALoFzrVYk+tpq3qi8JxBf90LMgAq09UOrpB/c6Rty4XtzeIL/uR4fVLq+7y7c+OX/Mi1YAKqeqXV93l258cv+ZD1S6vu8u3Pjl/zItWACqnql1fd5dufHL/mQ9Uur7vLtz45f8yLVgAqp6pdX3eXbnxy/wCZD1S6vu8u3Pjl/wAyLVgAq/Dz/VotP3WlLdoPuJmsQf8A3Q/Ts91ZJT9zpa3ildxU1iC/7oWeH52uuMjIy9sBVc6k1fFwo23J+5OYjzIx6ptX3eXbnxy/5kWqDACqvql1fd5dufHL/mQ9Uur7vLtz45f8yLVgAqp6pdX3eXbnxy/5ka7cSA1bXGoOoKWi6Qt5Dw04gXYF15E5fNSEuJ2doi6Dg9x9sXNABo9jaPjreWVoClpmbaplJJBAS2KNk8o6KzDttr2TwWS2knjcW4buXAZAAAAAAAAAAAAAAAAAAAAAAHhizL0K/v8A5hl/gPMPG4gnELSojNJkZH7ZAKw8nCRp0yweSx/pmZcf7SsWiFUOpo2cS9ELZOpoQn3nIhTULPHmmyUtRqVspSeCyZj9dTVtEfGJq/Pvif8AtAWtAVS6mraH8pq/5RP/AGh1NW0P5TV/yif+0B59epZltlDLeRXNkOT7n3cWmFXZFydNo6fqaSzxkqki42UR7ExhExs6efbQ+0tK0K2VbtxpL/8ADFogAAAAGr3O9jiqvBcV9EobQNXud7HFVeC4r6JQCKdBXYgWt8DM/MJ+FQ9EuoC19NaVbbyyb3GpOVzKFlLTcRBxs7hmXmllxStClkaT9oyE39M5Z7nWon5QwnnAEmgIy6Zyz3OtRPyhhPOB0zlnudaiflDCecASaAjLpnLPc61E/KGE84HTOWe51qJ+UMJ5wBJoCMumcs9zrUT8oYTzgdM5Z7nWon5QwnnAEhzIy9Lovf8A+iX/ANUxyE5O/T9b6/N0Lww1c01Cz9EFMFqhlPmojZM3l7RkZf8AaOmrupezjra0KupRCkrI0qI6hhMGXcP7p7Yjq2s30v2gns3nFHVlQEhjZsZqjVw1RQuHjztZMjd7pmApnZGChdBXKATm3s4h2kUPVxpXJY6IQWYdLhmbOFnw2VGppR5xlBGPPyiMLMdTmtOh7NSOPOEbk0EhcS+STV6Fee+6Kc2S7jfQBcO7Ey0tXujZZF1rVtvZ7GSz8EinqghUusltZwlSXSPGSzj948cqidLUjuV6v4KsqBYrFSEtuTdNRwpvOlsJR1xm7g+tSn+4Bz51baDrm2Ztc3cCd3FfraHkEW2tEI4lzLCFKLacSZqPGFJR2i7Qk7XrcxF3dH+n+rEupddmEeyqIURlufQhKHS/jSoXrrG9lhLgUzMKeqK4lBzeSx7fQoqDiJ/CGhxHHB/dO6RCNH6f0ixVv5bRMRUtvoimZbEqjICAcqOGNMK6o8qU2fRdxmeT/eAoPr9pmc25vhBLkSVIgbpUrAQsZsZSTjqDQ2pOPaS0yZ/rGJIr6hmbccoHpgptlCW/QNKS+HVsF98onY0jV+/GRdGuJ3pjuKdMrqGtKAmkRTatqVRDtQwnRIU+t+9PonDrUnv/AKJBU090xVlX8jraa1rQERVcmaSzATY6hhSeZbSajSn/AFmMEa1/3gLIlwGRGXTOWeP/AJ1qJ+UMJ5wOmcs9zrUT8oYTzgCTQEZdM5Z7nWon5QwnnA6Zyz3OtRPyhhPOAJNARl0zlnudaiflDCecDpnLPc61E/KGE84Ak0BGXTOWe51qJ+UMJ5wOmcs9zrUT8oYTzgCJtfH4qsr+02S/O6LSlwFKdZV5aAr5Fl5dTFcU7UUwRcmTPKhZVNWIp0myNwjWaELM9kjMizjG8hdYgGQAAAAAAAAAAAAAAAAAAAAAAAAAAAAAAAAAAAAAAAAAAAAAAAAAAAAAAAAAAAAAAAAAAAAAAAAAAAAAAAAAAAAAAAAAAAAAeCKhWo2Heh320vMPINDjaiylRGWDI/3DzgAiVWk2zismq21OmZnk/wCQp3n3Q6UuzZ/82tOfEUiWgARL0pdmubWnPiKQ6UuzXNrTnxFIloAES9KXZrm1pz4ikOlLs1za058RSJaABEvSl2a5tac+IpDpS7Nc2tOfEUiWgARL0pdmubWnPiKQ6UuzXNrTnxFIloAES9KXZrm1pz4ikOlLs1za058RSJaABEvSl2a5tac+IpDpS7Nc2tOfEUiWgARL0pdmubWnPiKQ6UuzXNrTnxFIloAES9KXZrm1pz4ikOlLs1za058RSJaABEvSl2a5tac+IpDpS7Nc2tOfEUiWgARL0pdmubWnPiKQ6UuzXNrTnxFIloAES9KXZrm1pz4ikOlLs1za058RSJaABF0q0xWokM0hZjLreyCDjoV1D7D7UEkltuJPKVEeNxkeDEoJLBEMgAAAAAAAAAAAAAAAAAAAAAAAAAAAAAAAAAAAAAAAAAAAAAAAAAAAAACAAAFAAAUAAAAAAAAAABjJd0ZGADJDIxghkQAABQAAAAAAAAAAAAAAAAAAAAAAAAAAAAAAAAAAAAAAAAAAAAAAAAAAAAAAAAAAAAAAAf/Z;" vertex="1" parent="1">
          <mxGeometry x="80" y="320" width="670" height="461" as="geometry" />
        </mxCell>
        <mxCell id="FcNpB4x53TWQPVrVAqMB-5" value="&lt;font style=&quot;font-size: 26px&quot;&gt;Which DSP Processor? C50?&lt;br&gt;Can DSP be done on&lt;br&gt;Microcontroller?&lt;br&gt;&lt;br&gt;&lt;/font&gt;" style="whiteSpace=wrap;html=1;shape=mxgraph.basic.cloud_callout;fillColor=#000099;fontColor=#ffffff;strokeColor=#001DBC;" vertex="1" parent="1">
          <mxGeometry x="760" y="110" width="440" height="280" as="geometry" />
        </mxCell>
        <mxCell id="FcNpB4x53TWQPVrVAqMB-6" value="&lt;font style=&quot;font-size: 26px&quot;&gt;Which microcontroller? &lt;br&gt;ARM or RISC V?&lt;br&gt;&lt;br&gt;&lt;br&gt;&lt;/font&gt;" style="whiteSpace=wrap;html=1;shape=mxgraph.basic.cloud_callout;fillColor=#000099;fontColor=#ffffff;strokeColor=#001DBC;" vertex="1" parent="1">
          <mxGeometry x="780" y="420" width="490" height="300" as="geometry" />
        </mxCell>
        <mxCell id="FcNpB4x53TWQPVrVAqMB-7" value="&lt;font style=&quot;font-size: 26px&quot;&gt;Do I need a dedicated Audio Decoder?&lt;br&gt;Can decode be done on &lt;br&gt;Microcontroller?&lt;br&gt;&lt;br&gt;&lt;/font&gt;" style="whiteSpace=wrap;html=1;shape=mxgraph.basic.cloud_callout;fillColor=#000099;fontColor=#ffffff;strokeColor=#001DBC;flipH=1;" vertex="1" parent="1">
          <mxGeometry x="-430" y="330" width="490" height="300" as="geometry" />
        </mxCell>
        <mxCell id="FcNpB4x53TWQPVrVAqMB-8" value="&lt;font style=&quot;font-size: 26px&quot;&gt;Which bus? AMBA? Avalon or PI?&lt;br&gt;Dedicated bus for DSP?&lt;br&gt;&lt;br&gt;&lt;/font&gt;" style="whiteSpace=wrap;html=1;shape=mxgraph.basic.cloud_callout;fillColor=#000099;fontColor=#ffffff;strokeColor=#001DBC;flipH=1;" vertex="1" parent="1">
          <mxGeometry x="-30" y="30" width="490" height="300" as="geometry" />
        </mxCell>
        <mxCell id="FcNpB4x53TWQPVrVAqMB-11" value="" style="rounded=1;whiteSpace=wrap;html=1;fontSize=26;fillColor=#fff2cc;strokeColor=#d6b656;" vertex="1" parent="1">
          <mxGeometry x="-810" y="800" width="580" height="300" as="geometry" />
        </mxCell>
        <mxCell id="FcNpB4x53TWQPVrVAqMB-12" value="" style="rounded=1;whiteSpace=wrap;html=1;fontSize=26;fillColor=#ffe6cc;strokeColor=#d79b00;" vertex="1" parent="1">
          <mxGeometry x="-750" y="860" width="180" height="210" as="geometry" />
        </mxCell>
        <mxCell id="FcNpB4x53TWQPVrVAqMB-13" value="" style="rounded=1;whiteSpace=wrap;html=1;fontSize=26;fillColor=#f8cecc;strokeColor=#b85450;" vertex="1" parent="1">
          <mxGeometry x="-460" y="860" width="180" height="210" as="geometry" />
        </mxCell>
        <mxCell id="FcNpB4x53TWQPVrVAqMB-16" value="" style="edgeStyle=orthogonalEdgeStyle;rounded=0;orthogonalLoop=1;jettySize=auto;html=1;fontSize=26;" edge="1" parent="1" source="FcNpB4x53TWQPVrVAqMB-14" target="FcNpB4x53TWQPVrVAqMB-15">
          <mxGeometry relative="1" as="geometry" />
        </mxCell>
        <mxCell id="FcNpB4x53TWQPVrVAqMB-14" value="p0" style="rounded=0;whiteSpace=wrap;html=1;fontSize=26;fillColor=#f5f5f5;fontColor=#333333;strokeColor=#666666;" vertex="1" parent="1">
          <mxGeometry x="-830" y="1010" width="40" height="40" as="geometry" />
        </mxCell>
        <mxCell id="FcNpB4x53TWQPVrVAqMB-30" value="" style="edgeStyle=orthogonalEdgeStyle;rounded=0;orthogonalLoop=1;jettySize=auto;html=1;fontSize=16;" edge="1" parent="1" source="FcNpB4x53TWQPVrVAqMB-15" target="FcNpB4x53TWQPVrVAqMB-23">
          <mxGeometry relative="1" as="geometry" />
        </mxCell>
        <mxCell id="FcNpB4x53TWQPVrVAqMB-15" value="p1" style="rounded=0;whiteSpace=wrap;html=1;fontSize=26;fillColor=#f5f5f5;fontColor=#333333;strokeColor=#666666;" vertex="1" parent="1">
          <mxGeometry x="-770" y="1010" width="40" height="40" as="geometry" />
        </mxCell>
        <mxCell id="FcNpB4x53TWQPVrVAqMB-19" value="" style="edgeStyle=orthogonalEdgeStyle;rounded=0;orthogonalLoop=1;jettySize=auto;html=1;fontSize=26;" edge="1" parent="1" source="FcNpB4x53TWQPVrVAqMB-17" target="FcNpB4x53TWQPVrVAqMB-18">
          <mxGeometry relative="1" as="geometry" />
        </mxCell>
        <mxCell id="FcNpB4x53TWQPVrVAqMB-17" value="p6" style="rounded=0;whiteSpace=wrap;html=1;fontSize=26;fillColor=#f5f5f5;fontColor=#333333;strokeColor=#666666;" vertex="1" parent="1">
          <mxGeometry x="-300" y="1010" width="40" height="40" as="geometry" />
        </mxCell>
        <mxCell id="FcNpB4x53TWQPVrVAqMB-18" value="p7" style="rounded=0;whiteSpace=wrap;html=1;fontSize=26;fillColor=#f5f5f5;fontColor=#333333;strokeColor=#666666;" vertex="1" parent="1">
          <mxGeometry x="-240" y="1010" width="40" height="40" as="geometry" />
        </mxCell>
        <mxCell id="FcNpB4x53TWQPVrVAqMB-20" value="&lt;font style=&quot;font-size: 20px&quot;&gt;Module A (Top)&lt;/font&gt;" style="text;html=1;align=center;verticalAlign=middle;resizable=0;points=[];autosize=1;strokeColor=none;fillColor=none;fontSize=26;" vertex="1" parent="1">
          <mxGeometry x="-780" y="800" width="150" height="40" as="geometry" />
        </mxCell>
        <mxCell id="FcNpB4x53TWQPVrVAqMB-21" value="&lt;font style=&quot;font-size: 20px&quot;&gt;Module B&lt;/font&gt;" style="text;html=1;align=center;verticalAlign=middle;resizable=0;points=[];autosize=1;strokeColor=none;fillColor=none;fontSize=26;" vertex="1" parent="1">
          <mxGeometry x="-748" y="855" width="100" height="40" as="geometry" />
        </mxCell>
        <mxCell id="FcNpB4x53TWQPVrVAqMB-22" value="&lt;font style=&quot;font-size: 20px&quot;&gt;Module C&lt;/font&gt;" style="text;html=1;align=center;verticalAlign=middle;resizable=0;points=[];autosize=1;strokeColor=none;fillColor=none;fontSize=26;" vertex="1" parent="1">
          <mxGeometry x="-450" y="855" width="100" height="40" as="geometry" />
        </mxCell>
        <mxCell id="FcNpB4x53TWQPVrVAqMB-26" value="" style="edgeStyle=orthogonalEdgeStyle;rounded=0;orthogonalLoop=1;jettySize=auto;html=1;fontSize=16;" edge="1" parent="1" source="FcNpB4x53TWQPVrVAqMB-23" target="FcNpB4x53TWQPVrVAqMB-25">
          <mxGeometry relative="1" as="geometry" />
        </mxCell>
        <mxCell id="FcNpB4x53TWQPVrVAqMB-23" value="X" style="ellipse;whiteSpace=wrap;html=1;fontSize=20;fillColor=#dae8fc;strokeColor=#6c8ebf;" vertex="1" parent="1">
          <mxGeometry x="-695" y="1005" width="70" height="50" as="geometry" />
        </mxCell>
        <mxCell id="FcNpB4x53TWQPVrVAqMB-28" value="" style="edgeStyle=orthogonalEdgeStyle;rounded=0;orthogonalLoop=1;jettySize=auto;html=1;fontSize=16;" edge="1" parent="1" source="FcNpB4x53TWQPVrVAqMB-25" target="FcNpB4x53TWQPVrVAqMB-27">
          <mxGeometry relative="1" as="geometry" />
        </mxCell>
        <mxCell id="FcNpB4x53TWQPVrVAqMB-25" value="&lt;font style=&quot;font-size: 16px&quot;&gt;event&lt;/font&gt;" style="shape=message;html=1;whiteSpace=wrap;html=1;outlineConnect=0;fontSize=20;fillColor=default;" vertex="1" parent="1">
          <mxGeometry x="-680" y="960" width="40" height="21.25" as="geometry" />
        </mxCell>
        <mxCell id="FcNpB4x53TWQPVrVAqMB-27" value="X" style="ellipse;whiteSpace=wrap;html=1;fontSize=20;fillColor=#dae8fc;strokeColor=#6c8ebf;" vertex="1" parent="1">
          <mxGeometry x="-695" y="890" width="70" height="50" as="geometry" />
        </mxCell>
        <mxCell id="FcNpB4x53TWQPVrVAqMB-37" value="" style="edgeStyle=orthogonalEdgeStyle;rounded=0;orthogonalLoop=1;jettySize=auto;html=1;fontSize=16;" edge="1" parent="1" source="FcNpB4x53TWQPVrVAqMB-31" target="FcNpB4x53TWQPVrVAqMB-36">
          <mxGeometry relative="1" as="geometry" />
        </mxCell>
        <mxCell id="FcNpB4x53TWQPVrVAqMB-31" value="P" style="ellipse;whiteSpace=wrap;html=1;fontSize=20;fillColor=#dae8fc;strokeColor=#6c8ebf;" vertex="1" parent="1">
          <mxGeometry x="-540" y="955" width="70" height="50" as="geometry" />
        </mxCell>
        <mxCell id="FcNpB4x53TWQPVrVAqMB-35" style="edgeStyle=orthogonalEdgeStyle;rounded=0;orthogonalLoop=1;jettySize=auto;html=1;exitX=0.75;exitY=0;exitDx=0;exitDy=0;entryX=0;entryY=0.5;entryDx=0;entryDy=0;fontSize=16;" edge="1" parent="1" source="FcNpB4x53TWQPVrVAqMB-32" target="FcNpB4x53TWQPVrVAqMB-31">
          <mxGeometry relative="1" as="geometry">
            <Array as="points">
              <mxPoint x="-560" y="980" />
            </Array>
          </mxGeometry>
        </mxCell>
        <mxCell id="FcNpB4x53TWQPVrVAqMB-32" value="p3" style="rounded=0;whiteSpace=wrap;html=1;fontSize=26;fillColor=#f5f5f5;fontColor=#333333;strokeColor=#666666;" vertex="1" parent="1">
          <mxGeometry x="-590" y="1010" width="40" height="40" as="geometry" />
        </mxCell>
        <mxCell id="FcNpB4x53TWQPVrVAqMB-33" value="p2" style="rounded=0;whiteSpace=wrap;html=1;fontSize=26;fillColor=#f5f5f5;fontColor=#333333;strokeColor=#666666;" vertex="1" parent="1">
          <mxGeometry x="-590" y="900" width="40" height="40" as="geometry" />
        </mxCell>
        <mxCell id="FcNpB4x53TWQPVrVAqMB-42" value="" style="edgeStyle=orthogonalEdgeStyle;rounded=0;orthogonalLoop=1;jettySize=auto;html=1;fontSize=16;" edge="1" parent="1" source="FcNpB4x53TWQPVrVAqMB-34" target="FcNpB4x53TWQPVrVAqMB-41">
          <mxGeometry relative="1" as="geometry" />
        </mxCell>
        <mxCell id="FcNpB4x53TWQPVrVAqMB-34" value="p5" style="rounded=0;whiteSpace=wrap;html=1;fontSize=26;fillColor=#f5f5f5;fontColor=#333333;strokeColor=#666666;" vertex="1" parent="1">
          <mxGeometry x="-480" y="900" width="40" height="40" as="geometry" />
        </mxCell>
        <mxCell id="FcNpB4x53TWQPVrVAqMB-36" value="p4" style="rounded=0;whiteSpace=wrap;html=1;fontSize=26;fillColor=#f5f5f5;fontColor=#333333;strokeColor=#666666;" vertex="1" parent="1">
          <mxGeometry x="-525" y="1080" width="40" height="40" as="geometry" />
        </mxCell>
        <mxCell id="FcNpB4x53TWQPVrVAqMB-39" value="" style="shape=link;html=1;rounded=0;fontSize=16;" edge="1" parent="1">
          <mxGeometry width="100" relative="1" as="geometry">
            <mxPoint x="-550" y="920" as="sourcePoint" />
            <mxPoint x="-480" y="920" as="targetPoint" />
          </mxGeometry>
        </mxCell>
        <mxCell id="FcNpB4x53TWQPVrVAqMB-40" value="C1" style="edgeLabel;html=1;align=center;verticalAlign=middle;resizable=0;points=[];fontSize=16;" vertex="1" connectable="0" parent="FcNpB4x53TWQPVrVAqMB-39">
          <mxGeometry x="0.1238" relative="1" as="geometry">
            <mxPoint as="offset" />
          </mxGeometry>
        </mxCell>
        <mxCell id="FcNpB4x53TWQPVrVAqMB-41" value="N" style="ellipse;whiteSpace=wrap;html=1;fontSize=20;fillColor=#dae8fc;strokeColor=#6c8ebf;" vertex="1" parent="1">
          <mxGeometry x="-405" y="895" width="70" height="50" as="geometry" />
        </mxCell>
        <mxCell id="FcNpB4x53TWQPVrVAqMB-45" style="edgeStyle=orthogonalEdgeStyle;rounded=0;orthogonalLoop=1;jettySize=auto;html=1;exitX=1;exitY=0.5;exitDx=0;exitDy=0;entryX=0;entryY=0.5;entryDx=0;entryDy=0;fontSize=16;" edge="1" parent="1" source="FcNpB4x53TWQPVrVAqMB-43" target="FcNpB4x53TWQPVrVAqMB-17">
          <mxGeometry relative="1" as="geometry" />
        </mxCell>
        <mxCell id="FcNpB4x53TWQPVrVAqMB-43" value="M" style="ellipse;whiteSpace=wrap;html=1;fontSize=20;fillColor=#dae8fc;strokeColor=#6c8ebf;" vertex="1" parent="1">
          <mxGeometry x="-405" y="1005" width="70" height="50" as="geometry" />
        </mxCell>
        <mxCell id="FcNpB4x53TWQPVrVAqMB-46" value="" style="shape=link;html=1;rounded=0;fontSize=16;exitX=0.5;exitY=1;exitDx=0;exitDy=0;entryX=0.5;entryY=0;entryDx=0;entryDy=0;" edge="1" parent="1" source="FcNpB4x53TWQPVrVAqMB-41" target="FcNpB4x53TWQPVrVAqMB-43">
          <mxGeometry width="100" relative="1" as="geometry">
            <mxPoint x="-405" y="979.76" as="sourcePoint" />
            <mxPoint x="-335" y="979.76" as="targetPoint" />
            <Array as="points">
              <mxPoint x="-370" y="970" />
            </Array>
          </mxGeometry>
        </mxCell>
        <mxCell id="FcNpB4x53TWQPVrVAqMB-47" value="C2" style="edgeLabel;html=1;align=center;verticalAlign=middle;resizable=0;points=[];fontSize=16;" vertex="1" connectable="0" parent="FcNpB4x53TWQPVrVAqMB-46">
          <mxGeometry x="0.1238" relative="1" as="geometry">
            <mxPoint y="-4" as="offset" />
          </mxGeometry>
        </mxCell>
        <mxCell id="FcNpB4x53TWQPVrVAqMB-48" value="" style="rounded=1;whiteSpace=wrap;html=1;fontSize=16;fillColor=#f8cecc;strokeColor=#b85450;" vertex="1" parent="1">
          <mxGeometry x="100" y="1610" width="150" height="150" as="geometry" />
        </mxCell>
        <mxCell id="FcNpB4x53TWQPVrVAqMB-49" value="SystemC Wrapper" style="text;html=1;align=center;verticalAlign=middle;resizable=0;points=[];autosize=1;strokeColor=none;fillColor=none;fontSize=16;" vertex="1" parent="1">
          <mxGeometry x="102" y="1620" width="150" height="20" as="geometry" />
        </mxCell>
        <mxCell id="FcNpB4x53TWQPVrVAqMB-50" value="Encrypted Library&lt;br&gt;(Verilator)" style="rounded=1;whiteSpace=wrap;html=1;fontSize=16;fillColor=default;" vertex="1" parent="1">
          <mxGeometry x="110" y="1690" width="130" height="60" as="geometry" />
        </mxCell>
        <mxCell id="FcNpB4x53TWQPVrVAqMB-51" value="" style="rounded=1;whiteSpace=wrap;html=1;fontSize=16;fillColor=#f8cecc;strokeColor=#b85450;" vertex="1" parent="1">
          <mxGeometry x="290" y="1610" width="150" height="150" as="geometry" />
        </mxCell>
        <mxCell id="FcNpB4x53TWQPVrVAqMB-52" value="SystemC Model" style="text;html=1;align=center;verticalAlign=middle;resizable=0;points=[];autosize=1;strokeColor=none;fillColor=none;fontSize=16;" vertex="1" parent="1">
          <mxGeometry x="300" y="1620" width="130" height="20" as="geometry" />
        </mxCell>
        <mxCell id="FcNpB4x53TWQPVrVAqMB-53" value="Model in SystemC Language" style="rounded=1;whiteSpace=wrap;html=1;fontSize=16;fillColor=default;" vertex="1" parent="1">
          <mxGeometry x="300" y="1690" width="130" height="60" as="geometry" />
        </mxCell>
        <mxCell id="FcNpB4x53TWQPVrVAqMB-57" value="" style="rounded=1;whiteSpace=wrap;html=1;fontSize=16;fillColor=#f8cecc;strokeColor=#b85450;" vertex="1" parent="1">
          <mxGeometry x="480" y="1610" width="150" height="150" as="geometry" />
        </mxCell>
        <mxCell id="FcNpB4x53TWQPVrVAqMB-58" value="SystemC Wrapper" style="text;html=1;align=center;verticalAlign=middle;resizable=0;points=[];autosize=1;strokeColor=none;fillColor=none;fontSize=16;" vertex="1" parent="1">
          <mxGeometry x="480" y="1620" width="150" height="20" as="geometry" />
        </mxCell>
        <mxCell id="FcNpB4x53TWQPVrVAqMB-59" value="C/C++ Logic" style="rounded=1;whiteSpace=wrap;html=1;fontSize=16;fillColor=default;" vertex="1" parent="1">
          <mxGeometry x="490" y="1690" width="130" height="60" as="geometry" />
        </mxCell>
        <mxCell id="FcNpB4x53TWQPVrVAqMB-60" value="" style="rounded=1;whiteSpace=wrap;html=1;fontSize=16;fillColor=#f8cecc;strokeColor=#b85450;" vertex="1" parent="1">
          <mxGeometry x="670" y="1610" width="150" height="150" as="geometry" />
        </mxCell>
        <mxCell id="FcNpB4x53TWQPVrVAqMB-61" value="SystemC Nativce" style="text;html=1;align=center;verticalAlign=middle;resizable=0;points=[];autosize=1;strokeColor=none;fillColor=none;fontSize=16;" vertex="1" parent="1">
          <mxGeometry x="675" y="1620" width="140" height="20" as="geometry" />
        </mxCell>
        <mxCell id="FcNpB4x53TWQPVrVAqMB-62" value="HW IP" style="rounded=1;whiteSpace=wrap;html=1;fontSize=16;fillColor=default;" vertex="1" parent="1">
          <mxGeometry x="680" y="1690" width="130" height="60" as="geometry" />
        </mxCell>
        <mxCell id="FcNpB4x53TWQPVrVAqMB-64" value="" style="rounded=1;whiteSpace=wrap;html=1;fontSize=16;fillColor=#f8cecc;strokeColor=#b85450;" vertex="1" parent="1">
          <mxGeometry x="860" y="1450" width="150" height="150" as="geometry" />
        </mxCell>
        <mxCell id="FcNpB4x53TWQPVrVAqMB-65" value="Firmware&lt;br&gt;Bus Interface" style="text;html=1;align=center;verticalAlign=middle;resizable=0;points=[];autosize=1;strokeColor=none;fillColor=none;fontSize=16;" vertex="1" parent="1">
          <mxGeometry x="880" y="1450" width="110" height="40" as="geometry" />
        </mxCell>
        <mxCell id="FcNpB4x53TWQPVrVAqMB-66" value="C/C++" style="rounded=1;whiteSpace=wrap;html=1;fontSize=16;fillColor=default;" vertex="1" parent="1">
          <mxGeometry x="870" y="1530" width="130" height="60" as="geometry" />
        </mxCell>
        <mxCell id="FcNpB4x53TWQPVrVAqMB-67" value="" style="line;strokeWidth=13;html=1;perimeter=backbonePerimeter;points=[];outlineConnect=0;fontSize=16;fillColor=default;" vertex="1" parent="1">
          <mxGeometry x="100" y="1520" width="760" height="10" as="geometry" />
        </mxCell>
        <mxCell id="FcNpB4x53TWQPVrVAqMB-71" value="" style="line;strokeWidth=13;direction=south;html=1;perimeter=backbonePerimeter;points=[];outlineConnect=0;fontSize=16;fillColor=default;" vertex="1" parent="1">
          <mxGeometry x="170" y="1530" width="10" height="80" as="geometry" />
        </mxCell>
        <mxCell id="FcNpB4x53TWQPVrVAqMB-72" value="" style="line;strokeWidth=13;direction=south;html=1;perimeter=backbonePerimeter;points=[];outlineConnect=0;fontSize=16;fillColor=default;" vertex="1" parent="1">
          <mxGeometry x="360" y="1530" width="10" height="80" as="geometry" />
        </mxCell>
        <mxCell id="FcNpB4x53TWQPVrVAqMB-73" value="" style="line;strokeWidth=13;direction=south;html=1;perimeter=backbonePerimeter;points=[];outlineConnect=0;fontSize=16;fillColor=default;" vertex="1" parent="1">
          <mxGeometry x="550" y="1530" width="10" height="80" as="geometry" />
        </mxCell>
        <mxCell id="FcNpB4x53TWQPVrVAqMB-74" value="" style="line;strokeWidth=13;direction=south;html=1;perimeter=backbonePerimeter;points=[];outlineConnect=0;fontSize=16;fillColor=default;" vertex="1" parent="1">
          <mxGeometry x="740" y="1530" width="10" height="80" as="geometry" />
        </mxCell>
        <mxCell id="FcNpB4x53TWQPVrVAqMB-76" value="Transaction Level Model (TLM)" style="text;html=1;align=center;verticalAlign=middle;resizable=0;points=[];autosize=1;strokeColor=none;fillColor=none;fontSize=16;" vertex="1" parent="1">
          <mxGeometry x="340" y="1500" width="240" height="20" as="geometry" />
        </mxCell>
        <mxCell id="FcNpB4x53TWQPVrVAqMB-77" value="Monitor" style="rounded=1;whiteSpace=wrap;html=1;fontSize=26;fillColor=#ffe6cc;strokeColor=#d79b00;" vertex="1" parent="1">
          <mxGeometry x="-760" y="1590" width="180" height="210" as="geometry" />
        </mxCell>
        <mxCell id="FcNpB4x53TWQPVrVAqMB-100" value="" style="edgeStyle=orthogonalEdgeStyle;rounded=0;orthogonalLoop=1;jettySize=auto;html=1;fontSize=23;endArrow=none;endFill=0;" edge="1" parent="1" source="FcNpB4x53TWQPVrVAqMB-78" target="FcNpB4x53TWQPVrVAqMB-91">
          <mxGeometry relative="1" as="geometry" />
        </mxCell>
        <mxCell id="FcNpB4x53TWQPVrVAqMB-78" value="" style="rounded=0;whiteSpace=wrap;html=1;fontSize=26;fillColor=#f5f5f5;fontColor=#333333;strokeColor=#666666;" vertex="1" parent="1">
          <mxGeometry x="-1210" y="1630" width="40" height="40" as="geometry" />
        </mxCell>
        <mxCell id="FcNpB4x53TWQPVrVAqMB-79" value="Stimuli" style="rounded=1;whiteSpace=wrap;html=1;fontSize=26;fillColor=#ffe6cc;strokeColor=#d79b00;" vertex="1" parent="1">
          <mxGeometry x="-1580" y="1590" width="180" height="210" as="geometry" />
        </mxCell>
        <mxCell id="FcNpB4x53TWQPVrVAqMB-80" value="Multiply" style="rounded=1;whiteSpace=wrap;html=1;fontSize=26;fillColor=#ffe6cc;strokeColor=#d79b00;" vertex="1" parent="1">
          <mxGeometry x="-1170" y="1590" width="180" height="210" as="geometry" />
        </mxCell>
        <mxCell id="FcNpB4x53TWQPVrVAqMB-81" value="" style="rounded=0;whiteSpace=wrap;html=1;fontSize=26;fillColor=#f5f5f5;fontColor=#333333;strokeColor=#666666;" vertex="1" parent="1">
          <mxGeometry x="-1400" y="1630" width="40" height="40" as="geometry" />
        </mxCell>
        <mxCell id="FcNpB4x53TWQPVrVAqMB-82" value="" style="rounded=0;whiteSpace=wrap;html=1;fontSize=26;fillColor=#f5f5f5;fontColor=#333333;strokeColor=#666666;" vertex="1" parent="1">
          <mxGeometry x="-1400" y="1735" width="40" height="40" as="geometry" />
        </mxCell>
        <mxCell id="FcNpB4x53TWQPVrVAqMB-83" value="" style="rounded=0;whiteSpace=wrap;html=1;fontSize=26;fillColor=#f5f5f5;fontColor=#333333;strokeColor=#666666;" vertex="1" parent="1">
          <mxGeometry x="-1210" y="1735" width="40" height="40" as="geometry" />
        </mxCell>
        <mxCell id="FcNpB4x53TWQPVrVAqMB-84" value="" style="rounded=0;whiteSpace=wrap;html=1;fontSize=26;fillColor=#f5f5f5;fontColor=#333333;strokeColor=#666666;" vertex="1" parent="1">
          <mxGeometry x="-990" y="1675" width="40" height="40" as="geometry" />
        </mxCell>
        <mxCell id="FcNpB4x53TWQPVrVAqMB-85" value="" style="rounded=0;whiteSpace=wrap;html=1;fontSize=26;fillColor=#f5f5f5;fontColor=#333333;strokeColor=#666666;" vertex="1" parent="1">
          <mxGeometry x="-800" y="1675" width="40" height="40" as="geometry" />
        </mxCell>
        <mxCell id="FcNpB4x53TWQPVrVAqMB-103" style="edgeStyle=orthogonalEdgeStyle;rounded=0;orthogonalLoop=1;jettySize=auto;html=1;exitX=0.5;exitY=0;exitDx=0;exitDy=0;fontSize=23;endArrow=none;endFill=0;entryX=0.5;entryY=0;entryDx=0;entryDy=0;" edge="1" parent="1" source="FcNpB4x53TWQPVrVAqMB-86" target="FcNpB4x53TWQPVrVAqMB-91">
          <mxGeometry relative="1" as="geometry">
            <mxPoint x="-1290" y="1630" as="targetPoint" />
          </mxGeometry>
        </mxCell>
        <mxCell id="FcNpB4x53TWQPVrVAqMB-86" value="" style="rounded=0;whiteSpace=wrap;html=1;fontSize=26;fillColor=#f5f5f5;fontColor=#333333;strokeColor=#666666;" vertex="1" parent="1">
          <mxGeometry x="-740" y="1550" width="40" height="40" as="geometry" />
        </mxCell>
        <mxCell id="FcNpB4x53TWQPVrVAqMB-104" style="edgeStyle=orthogonalEdgeStyle;rounded=0;orthogonalLoop=1;jettySize=auto;html=1;entryX=0.956;entryY=1;entryDx=0;entryDy=0;entryPerimeter=0;fontSize=23;endArrow=none;endFill=0;" edge="1" parent="1" source="FcNpB4x53TWQPVrVAqMB-87" target="FcNpB4x53TWQPVrVAqMB-90">
          <mxGeometry relative="1" as="geometry" />
        </mxCell>
        <mxCell id="FcNpB4x53TWQPVrVAqMB-87" value="" style="rounded=0;whiteSpace=wrap;html=1;fontSize=26;fillColor=#f5f5f5;fontColor=#333333;strokeColor=#666666;" vertex="1" parent="1">
          <mxGeometry x="-690" y="1550" width="40" height="40" as="geometry" />
        </mxCell>
        <mxCell id="FcNpB4x53TWQPVrVAqMB-102" style="edgeStyle=orthogonalEdgeStyle;rounded=0;orthogonalLoop=1;jettySize=auto;html=1;exitX=0.5;exitY=0;exitDx=0;exitDy=0;entryX=0.044;entryY=1.035;entryDx=0;entryDy=0;entryPerimeter=0;fontSize=23;endArrow=none;endFill=0;" edge="1" parent="1" source="FcNpB4x53TWQPVrVAqMB-88" target="FcNpB4x53TWQPVrVAqMB-90">
          <mxGeometry relative="1" as="geometry" />
        </mxCell>
        <mxCell id="FcNpB4x53TWQPVrVAqMB-88" value="" style="rounded=0;whiteSpace=wrap;html=1;fontSize=26;fillColor=#f5f5f5;fontColor=#333333;strokeColor=#666666;" vertex="1" parent="1">
          <mxGeometry x="-1510" y="1550" width="40" height="40" as="geometry" />
        </mxCell>
        <mxCell id="FcNpB4x53TWQPVrVAqMB-90" value="&lt;font style=&quot;font-size: 23px&quot;&gt;&lt;b&gt;testclk&lt;/b&gt;&lt;/font&gt;" style="rounded=0;whiteSpace=wrap;html=1;fontSize=16;strokeWidth=2;fillColor=default;strokeColor=default;" vertex="1" parent="1">
          <mxGeometry x="-1530" y="1440" width="900" height="30" as="geometry" />
        </mxCell>
        <mxCell id="FcNpB4x53TWQPVrVAqMB-97" value="" style="edgeStyle=orthogonalEdgeStyle;rounded=0;orthogonalLoop=1;jettySize=auto;html=1;fontSize=23;endArrow=none;endFill=0;" edge="1" parent="1" source="FcNpB4x53TWQPVrVAqMB-91" target="FcNpB4x53TWQPVrVAqMB-81">
          <mxGeometry relative="1" as="geometry" />
        </mxCell>
        <mxCell id="FcNpB4x53TWQPVrVAqMB-91" value="" style="rounded=0;whiteSpace=wrap;html=1;fontSize=16;strokeWidth=2;fillColor=default;strokeColor=default;" vertex="1" parent="1">
          <mxGeometry x="-1330" y="1635" width="80" height="30" as="geometry" />
        </mxCell>
        <mxCell id="FcNpB4x53TWQPVrVAqMB-94" value="" style="edgeStyle=orthogonalEdgeStyle;rounded=0;orthogonalLoop=1;jettySize=auto;html=1;fontSize=23;endArrow=none;endFill=0;" edge="1" parent="1" source="FcNpB4x53TWQPVrVAqMB-93" target="FcNpB4x53TWQPVrVAqMB-83">
          <mxGeometry relative="1" as="geometry" />
        </mxCell>
        <mxCell id="FcNpB4x53TWQPVrVAqMB-96" value="" style="edgeStyle=orthogonalEdgeStyle;rounded=0;orthogonalLoop=1;jettySize=auto;html=1;fontSize=23;endArrow=none;endFill=0;" edge="1" parent="1" source="FcNpB4x53TWQPVrVAqMB-93" target="FcNpB4x53TWQPVrVAqMB-82">
          <mxGeometry relative="1" as="geometry" />
        </mxCell>
        <mxCell id="FcNpB4x53TWQPVrVAqMB-93" value="" style="rounded=0;whiteSpace=wrap;html=1;fontSize=16;strokeWidth=2;fillColor=default;strokeColor=default;" vertex="1" parent="1">
          <mxGeometry x="-1330" y="1740" width="80" height="30" as="geometry" />
        </mxCell>
        <mxCell id="FcNpB4x53TWQPVrVAqMB-106" value="" style="edgeStyle=orthogonalEdgeStyle;rounded=0;orthogonalLoop=1;jettySize=auto;html=1;fontSize=23;endArrow=none;endFill=0;" edge="1" parent="1" source="FcNpB4x53TWQPVrVAqMB-105" target="FcNpB4x53TWQPVrVAqMB-85">
          <mxGeometry relative="1" as="geometry" />
        </mxCell>
        <mxCell id="FcNpB4x53TWQPVrVAqMB-107" value="" style="edgeStyle=orthogonalEdgeStyle;rounded=0;orthogonalLoop=1;jettySize=auto;html=1;fontSize=23;endArrow=none;endFill=0;" edge="1" parent="1" source="FcNpB4x53TWQPVrVAqMB-105" target="FcNpB4x53TWQPVrVAqMB-84">
          <mxGeometry relative="1" as="geometry" />
        </mxCell>
        <mxCell id="FcNpB4x53TWQPVrVAqMB-105" value="" style="rounded=0;whiteSpace=wrap;html=1;fontSize=16;strokeWidth=2;fillColor=default;strokeColor=default;" vertex="1" parent="1">
          <mxGeometry x="-920" y="1680" width="80" height="30" as="geometry" />
        </mxCell>
        <mxCell id="FcNpB4x53TWQPVrVAqMB-109" style="edgeStyle=orthogonalEdgeStyle;rounded=0;orthogonalLoop=1;jettySize=auto;html=1;exitX=0.5;exitY=1;exitDx=0;exitDy=0;entryX=0.5;entryY=1;entryDx=0;entryDy=0;fontSize=23;endArrow=none;endFill=0;" edge="1" parent="1" source="FcNpB4x53TWQPVrVAqMB-108" target="FcNpB4x53TWQPVrVAqMB-93">
          <mxGeometry relative="1" as="geometry" />
        </mxCell>
        <mxCell id="FcNpB4x53TWQPVrVAqMB-108" value="" style="rounded=0;whiteSpace=wrap;html=1;fontSize=26;fillColor=#f5f5f5;fontColor=#333333;strokeColor=#666666;" vertex="1" parent="1">
          <mxGeometry x="-738" y="1800" width="40" height="40" as="geometry" />
        </mxCell>
      </root>
    </mxGraphModel>
  </diagram>
</mxfile>
